<?xml version="1.0" encoding="UTF-8"?>
<svg id="Full_Logo" data-name="Full Logo" xmlns="http://www.w3.org/2000/svg" viewBox="0 0 1026.13 365.85">
  <defs>
    <style>
      .cls-1 {
        fill: #fff;
      }

      .cls-2 {
        fill: #050833;
      }
    </style>
  </defs>
  <rect class="cls-2" x="-11.85" y="-13.6" width="1049.82" height="393.05"/>
  <g>
    <g>
      <path class="cls-1" d="M462.26,207.23v16.1h-59.13v-73.65h57.76v16.1h-37.14v12.41h32.72v15.57h-32.72v13.47h38.51Z"/>
      <path class="cls-1" d="M548.53,149.68l-31.56,73.65h-20.52l-31.46-73.65h22.51l19.99,47.98,20.41-47.98h20.62Z"/>
      <path class="cls-1" d="M598.92,203.65h-41.03l-8.84,19.67h-8.1l33.67-73.65h7.68l33.67,73.65h-8.21l-8.84-19.67Zm-2.84-6.31l-17.68-39.56-17.67,39.56h35.35Z"/>
      <path class="cls-1" d="M780.72,149.68v73.65h-7.47v-58.92l-28.93,49.55h-3.68l-28.93-49.24v58.6h-7.47v-73.65h6.42l31.98,54.6,31.67-54.6h6.42Z"/>
      <path class="cls-1" d="M817.07,219.06c-5.93-3.26-10.56-7.73-13.89-13.41-3.33-5.68-5-12.06-5-19.15s1.67-13.47,5-19.15c3.33-5.68,7.96-10.15,13.89-13.41,5.93-3.26,12.54-4.89,19.83-4.89s13.87,1.61,19.73,4.84c5.86,3.23,10.47,7.7,13.83,13.41,3.37,5.72,5.05,12.12,5.05,19.2s-1.68,13.49-5.05,19.2c-3.37,5.72-7.98,10.19-13.83,13.41-5.86,3.23-12.43,4.84-19.73,4.84s-13.91-1.63-19.83-4.89Zm35.61-6c4.7-2.63,8.38-6.28,11.05-10.94,2.67-4.66,4-9.87,4-15.62s-1.33-10.96-4-15.62c-2.67-4.66-6.35-8.31-11.05-10.94-4.7-2.63-9.96-3.95-15.78-3.95s-11.1,1.32-15.83,3.95c-4.73,2.63-8.45,6.28-11.15,10.94-2.7,4.67-4.05,9.87-4.05,15.62s1.35,10.96,4.05,15.62c2.7,4.67,6.42,8.31,11.15,10.94s10.01,3.95,15.83,3.95,11.08-1.32,15.78-3.95Z"/>
      <path class="cls-1" d="M387.03,167.04c-3.44-5.54-8.28-9.82-14.52-12.83-6.24-3.01-13.4-4.52-21.46-4.52h-34.82v16.62h20.83s13.15,0,13.15,0c6.31,0,11.38,1.79,15.2,5.37,3.82,3.58,5.73,8.52,5.73,14.83s-1.91,11.26-5.73,14.83c-3.82,3.58-8.89,5.37-15.2,5.37h-13.15v-.03h-4.18v-28.48h-16.65v45.13h34.82c8.06,0,15.22-1.51,21.46-4.52,6.24-3.01,11.08-7.29,14.52-12.83,3.44-5.54,5.16-12.03,5.16-19.46s-1.72-13.92-5.16-19.46Z"/>
    </g>
    <path class="cls-1" d="M668.99,198.08c5.4-1.75,9.56-4.61,12.47-8.57,2.91-3.96,4.37-8.82,4.37-14.57,0-7.85-2.67-14.03-8-18.52-5.33-4.49-12.7-6.73-22.09-6.73h-27.56v6.75l27.35-.02c7.29,0,12.87,1.6,16.73,4.79,3.86,3.19,5.79,7.77,5.79,13.73s-1.93,10.35-5.79,13.57c-3.86,3.23-9.43,4.84-16.73,4.84h-27.35v29.98h7.79v-23.36h19.78c2.03,0,4-.11,5.89-.32l16.83,23.67h8.52l-17.99-25.25Z"/>
    <path class="cls-1" d="M933.8,198.08c5.4-1.75,9.56-4.61,12.47-8.57,2.91-3.96,4.37-8.82,4.37-14.57,0-7.85-2.67-14.03-8-18.52-5.33-4.49-12.7-6.73-22.09-6.73h-27.56v6.75l27.35-.02c7.29,0,12.87,1.6,16.73,4.79,3.86,3.19,5.79,7.77,5.79,13.73s-1.93,10.35-5.79,13.57c-3.86,3.23-9.43,4.84-16.73,4.84h-27.35v29.98h7.79v-23.36h19.78c2.03,0,4-.11,5.89-.32l16.83,23.67h8.52l-17.99-25.25Z"/>
    <g>
      <path class="cls-1" d="M210.12,115.1c-3.01-1.61-6.14-2.94-9.42-3.9-.31-.09-.77-.47-.99-.06-.29,.52,.31,.67,.63,.88,7.51,4.84,14.53,10.27,20.6,16.86,6.63,7.19,11.62,15.43,15.54,24.35,.62,1.42,1.27,2.83,2.05,4.58-.21-4.51-.78-8.58-2.07-12.55-4.49-13.81-13.75-23.44-26.35-30.17Z"/>
      <path class="cls-1" d="M236.72,88.62c-30.6-17.06-69.47-19.24-101.46-4.33-73.4,34.57-81.49,133.47-18.73,183.06,40.26,32.66,100.49,32.3,139.82-1.59,58.74-49.71,46.67-140.57-19.63-177.14Zm13.56,169.73c-9.5,7.65-20.26,13.24-31.59,16.79l-6.87-5.68c-14.01-11.59-20.71-29.82-17.52-47.72,0,0-25.66,12.47-35.66,37.99-9.11-18.2-24.07-43.42-12.84-71.02,0,0,0,0,0,0,3.56,5.44,8.09,10.3,13.56,14.6,7.33,5.75,15.7,9.45,24.36,12.63,4.64,1.7,9.38,3.12,14.08,4.64,.39,.12,.77,.27,1.31,.47l10.33,4.13c4.96,2.03,9.81,4.32,15.03,5.66,2.4,.62,4.85,.95,7.34,.68,.3,.06,.6,.07,.9-.06,.87-.01,1.72-.11,2.55-.37,0,0,.11,0,.11,0,.45-.11,.89-.22,1.34-.33,4.37-1.24,7.85-3.78,10.58-7.37,1.34-1.76,2.44-3.68,3.54-5.6,1.54-2.17,3.08-4.34,4.62-6.52,.12-.18,.31-.33,.26-.59,.08-.03,.2-.04,.11-.16-.02-.03-.16,.03-.25,.05,0,0,0,0,0,0-2.24,.43-4.64-.76-5.75-2.8-.18-.34-.06-.56,.05-.83,.89-2.24,1.53-4.54,1.59-6.98,.01-.47,.21-.79,.56-1.15,2.21-2.25,4.28-4.62,6.34-7.01,1.13-1.31,1.41-2.59,.77-4.23-1-2.54-.93-2.57-3.62-2.29-5.27,.55-10.53,1.08-15.79,1.69-.82,.09-1.09-.2-1.38-.85-3.7-8.22-7.43-16.43-11.15-24.65-1.03-2.28-2.02-4.58-3.04-6.87-.16-.35-.26-.71-.25-1.08,.21-5.85-1.61-11.15-4.44-16.15-1.92-3.4-4.2-6.55-7.04-9.25-2.3-2.48-4.85-4.68-7.61-6.64-9.57-6.8-20.41-9.84-31.98-10.71-.33-.02-.67,0-1.19,0,1.16,1.49,2.16,2.89,3.02,4.4,1.69,2.94,2.92,6.06,3.72,9.35,.23,.94-.02,1.47-.76,2.07-6.41,5.19-12.68,10.54-18.37,16.52-4.66,4.9-8.79,10.22-12.26,16.02-.13,.22-.42,.26-.61,.09-.09-.08-.14-.2-.13-.32,0-.19,.02-.47,.03-.52,1.15-10.09,6.22-17.66,13.05-24.84,3.11-3.27,6.46-6.27,9.82-9.26,.65-.58,.8-1.06,.51-1.92-2.15-6.31-5.44-11.85-10.82-15.94-5.03-3.82-11.67-4.23-16.54-1.03-3.37,2.22-5.35,5.49-6.66,9.22-1.75,5-2.2,10.18-1.94,15.4,.44,8.7,1.2,17.39,2.25,26.03-16,22.99-25.05,48.47-31.87,75-26.08-45.71-11.19-107.33,36.57-136.7,28.2-17.91,65.59-20.07,95.32-4.29,64.67,33.46,70.36,123.8,14.33,168.28Zm-62.34-107.73c2.24-.13,4.36-.24,6.48-.39,.77-.06,1.18,.2,1.55,.91,2.16,4.24,5.55,6.98,10.15,8.27,3.95,1.1,7.99,1.67,12.05,2.05,.77,.07,1.12,.37,1.4,1,2.98,6.61,5.94,13.23,8.98,19.82,.44,.95,.3,1.56-.33,2.27-2.99,3.41-5.98,6.83-8.93,10.28-3.1,3.62-6.27,7.18-9.21,10.94-.2,.25-.72,.45-.31,.98,.88,1.11,1.7,2.28,2.58,3.39,5.9,7.48,14.53,9.42,23.04,7.01,3.51-1,6.64-2.73,9.38-5.15,.38-.34,.62-.53,.65,.19-.07,.44-.13,.87-.2,1.31-.91,5.82-4.23,9.78-9.46,12.27-.69,.27-1.35,.65-2.06,.78-4.94,.93-9.52-.12-13.78-2.71-4.71-2.86-9.42-5.7-14.1-8.62-13.01-8.12-27.12-13.44-42.11-16.53-2.43-.5-4.87-1-7.5-1.55,3.59-.93,7.01-1.6,10.45-2.17,9.74-1.63,19.41-1.28,29,1.05,2.1,.51,4.18,1.14,6.27,1.72l.17-.16c-7.92-9.73-18.03-15.46-30.59-16.73-6.15-.62-12.22,.01-18.25,1.2-1.85,.36-3.7,.74-5.76,1.15,.67-.92,1.22-1.66,1.76-2.4,.28-.3,.58-.58,.85-.89,3.43-3.98,6.84-7.97,10.29-11.94,5.99-6.87,12.04-13.68,18.44-20.18,5.91-6,12.51-10.96,20.71-13.44,4.2-1.27,8.48-1.89,12.88-1.47,.04,.23,.08,.46,.12,.7,.02,.14,.04,.28,.06,.43l1,9.56c-9.67-3.33-20.33,2.44-25.66,7.06Zm23.12,.71c-.76,1.5-2.35,2.47-4.02,2.53-1.17,.04-2.32-.42-3.19-1.19-.7-.62-1.19-1.41-1.51-2.28-.14-.38-.28-.82-.25-1.23,.02-.26,.12-.51,.32-.69,.31-.28,.77-.33,1.17-.37l6.05-.63c.5-.03,1.05-.06,1.46,.26,.29,.23,.44,.6,.49,.97,.1,.86-.12,1.86-.51,2.63Zm22.05,37.18c.55-.65,.82-.65,1.09,.11,.28,.76,.57,1.52,.91,2.25,.44,.94,.74,1.85,1.65,2.51,2.86,2.07,5.63,4.25,8.48,6.32,.56,.41,.66,.8,.61,1.4-.25,3.02-1.48,5.59-3.75,7.56-4.23,3.66-9.24,4.61-14.63,3.84-4.14-.59-7.2-3.04-10.03-6.24l15.66-17.74Z"/>
      <path class="cls-1" d="M243.49,118.71c1.29-4.63,2.06-9.3,1.09-14.11-.9-4.46-4.2-6.93-8.69-6.38-4.28,.52-7.91,2.63-11.47,4.88-3.46,2.19-6.6,4.78-9.71,7.43-.13,.11-.34,.19-.29,.45,9.71,3.31,18.66,7.98,26.25,15.09,1.27-2.3,2.11-4.82,2.82-7.37Z"/>
      <path class="cls-1" d="M250.95,164.29c-.95-2.06-1.85-4.04-2.76-6.01-.24-.53,.19-.62,.46-.85,2.57-2.05,4.28-4.6,4.56-7.96,.02-.19,.09-.39,.04-.56-.57-2,.42-3.52,1.48-5.04,.34-.49,.56-1.08,.93-1.54,.69-.85,.51-1.24-.5-1.59-2.01-.7-4.01-.96-6.04-.22-.61,.22-.71,.06-.89-.49-1.57-4.78-5.03-7.61-9.69-9.15,1.62,2.6,3.15,5.19,4.09,8.09,.64,2,1.19,4.02,1.45,6.12,.62,5.04,1.24,10.07,1.09,15.16-.01,.44,.1,.79,.31,1.16,2.97,5.2,5.93,10.4,8.89,15.6,.03,.06,.11,.1,.22,.2,1.75-7.04,2.86-14.08,1.66-21.59-1.23,3.38-3.05,6.08-5.29,8.67Z"/>
      <path class="cls-1" d="M183.55,154.17c-5.75,6.17-11.52,12.32-17.29,18.48-.07,.08-.13,.18-.22,.33,18.19-.8,32.8,5.52,43.11,20.95,.29-1.4,.49-2.81,.51-4.22,.19-9.29-2.98-17.2-9.9-23.47-4.79-4.33-10.03-8.12-15.13-12.08-.41-.32-.64-.46-1.08,0Z"/>
    </g>
  </g>
</svg>