<?xml version="1.0" encoding="UTF-8"?>
<svg id="Full_Logo_with_Text_on_BG" data-name="Full Logo with Text on BG" xmlns="http://www.w3.org/2000/svg" viewBox="0 0 1083.49 359.3">
  <defs>
    <style>
      .cls-1 {
        fill: #fff;
      }

      .cls-2 {
        fill: #54086b;
      }
    </style>
  </defs>
  <g>
    <path class="cls-2" d="M206.84,111.83c-3.01-1.61-6.14-2.94-9.42-3.9-.31-.09-.77-.47-.99-.06-.29,.52,.31,.67,.63,.88,7.51,4.84,14.53,10.27,20.6,16.86,6.63,7.19,11.62,15.43,15.54,24.35,.62,1.42,1.27,2.83,2.05,4.58-.21-4.51-.78-8.58-2.07-12.55-4.49-13.81-13.75-23.44-26.35-30.17Z"/>
    <path class="cls-2" d="M233.44,85.34c-30.6-17.06-69.47-19.24-101.46-4.33-73.4,34.57-81.49,133.47-18.73,183.06,40.26,32.66,100.49,32.3,139.82-1.59,58.74-49.71,46.67-140.57-19.63-177.14Zm13.56,169.73c-9.5,7.65-20.26,13.24-31.59,16.79l-6.87-5.68c-14.01-11.59-20.71-29.82-17.52-47.72,0,0-25.66,12.47-35.66,37.99-9.11-18.2-24.07-43.42-12.84-71.02,0,0,0,0,0,0,3.56,5.44,8.09,10.3,13.56,14.6,7.33,5.75,15.7,9.45,24.36,12.63,4.64,1.7,9.38,3.12,14.08,4.64,.39,.12,.77,.27,1.31,.47l10.33,4.13c4.96,2.03,9.81,4.32,15.03,5.66,2.4,.62,4.85,.95,7.34,.68,.3,.06,.61,.07,.9-.06,.87-.01,1.72-.11,2.55-.37,0,0,.11,0,.11,0,.45-.11,.89-.22,1.34-.33,4.37-1.24,7.85-3.78,10.58-7.37,1.34-1.76,2.44-3.68,3.54-5.6,1.54-2.17,3.08-4.34,4.62-6.52,.12-.18,.31-.33,.26-.59,.08-.03,.2-.04,.11-.16-.02-.03-.16,.03-.25,.05,0,0,0,0,0,0-2.24,.43-4.64-.76-5.75-2.8-.18-.34-.06-.56,.05-.83,.89-2.24,1.53-4.54,1.59-6.98,.01-.47,.21-.79,.56-1.15,2.21-2.25,4.28-4.62,6.34-7.01,1.13-1.31,1.41-2.59,.77-4.23-1-2.54-.93-2.57-3.62-2.29-5.27,.55-10.53,1.08-15.79,1.69-.82,.09-1.09-.2-1.38-.85-3.7-8.22-7.44-16.43-11.15-24.65-1.03-2.28-2.02-4.58-3.04-6.87-.16-.35-.26-.7-.25-1.08,.21-5.85-1.61-11.15-4.44-16.15-1.92-3.4-4.2-6.55-7.04-9.25-2.3-2.48-4.85-4.68-7.61-6.64-9.57-6.81-20.41-9.84-31.98-10.71-.33-.02-.67,0-1.19,0,1.16,1.49,2.16,2.89,3.02,4.4,1.69,2.94,2.92,6.06,3.72,9.35,.23,.94-.02,1.47-.76,2.07-6.41,5.19-12.68,10.53-18.37,16.52-4.66,4.9-8.79,10.22-12.26,16.02-.13,.22-.42,.26-.61,.09-.09-.08-.14-.2-.13-.32,0-.19,.02-.47,.03-.52,1.15-10.09,6.22-17.66,13.05-24.84,3.11-3.27,6.46-6.26,9.82-9.26,.65-.58,.8-1.06,.51-1.91-2.15-6.31-5.44-11.85-10.82-15.94-5.03-3.82-11.67-4.23-16.54-1.03-3.37,2.22-5.35,5.49-6.66,9.22-1.75,5-2.2,10.18-1.94,15.4,.44,8.7,1.2,17.39,2.25,26.03-16,22.99-25.05,48.47-31.87,75-26.08-45.71-11.19-107.33,36.57-136.7,28.2-17.91,65.59-20.07,95.32-4.29,64.67,33.46,70.36,123.8,14.33,168.28Zm-62.34-107.73c2.24-.13,4.36-.24,6.48-.39,.77-.06,1.18,.2,1.55,.91,2.16,4.24,5.55,6.98,10.15,8.27,3.95,1.1,7.99,1.67,12.05,2.05,.77,.07,1.12,.37,1.4,1,2.98,6.61,5.94,13.23,8.98,19.82,.44,.95,.3,1.56-.33,2.27-2.99,3.41-5.98,6.83-8.93,10.28-3.1,3.62-6.27,7.18-9.21,10.94-.2,.25-.72,.45-.31,.98,.88,1.11,1.7,2.28,2.58,3.39,5.9,7.48,14.53,9.42,23.04,7.01,3.51-1,6.64-2.73,9.38-5.15,.38-.34,.62-.53,.65,.19-.07,.44-.13,.87-.2,1.31-.91,5.82-4.23,9.78-9.46,12.27-.69,.27-1.35,.65-2.06,.78-4.94,.93-9.52-.12-13.78-2.71-4.71-2.86-9.42-5.7-14.1-8.62-13.01-8.12-27.12-13.44-42.11-16.53-2.43-.5-4.87-1-7.5-1.55,3.59-.93,7.01-1.6,10.45-2.17,9.74-1.63,19.41-1.28,29,1.05,2.1,.51,4.18,1.14,6.27,1.72l.17-.16c-7.92-9.73-18.03-15.46-30.59-16.73-6.15-.62-12.22,.01-18.25,1.2-1.85,.36-3.7,.74-5.76,1.15,.67-.92,1.22-1.66,1.76-2.4,.28-.3,.58-.58,.85-.89,3.43-3.98,6.84-7.97,10.29-11.94,5.99-6.87,12.04-13.68,18.44-20.18,5.91-6,12.51-10.96,20.71-13.44,4.2-1.27,8.48-1.89,12.88-1.47,.04,.23,.08,.47,.12,.7,.02,.14,.04,.28,.06,.43l1,9.56c-9.67-3.33-20.33,2.44-25.66,7.06Zm23.12,.71c-.76,1.5-2.35,2.47-4.02,2.53-1.17,.04-2.32-.42-3.19-1.19-.7-.62-1.19-1.41-1.51-2.28-.14-.38-.28-.82-.25-1.23,.02-.26,.12-.51,.32-.69,.31-.28,.77-.33,1.17-.37l6.05-.63c.5-.03,1.05-.06,1.46,.26,.29,.23,.44,.6,.49,.97,.1,.86-.12,1.86-.51,2.63Zm22.05,37.18c.55-.65,.82-.64,1.09,.11,.28,.76,.57,1.52,.91,2.25,.44,.94,.74,1.85,1.65,2.51,2.86,2.07,5.63,4.25,8.48,6.32,.56,.41,.66,.8,.61,1.4-.25,3.02-1.48,5.59-3.75,7.56-4.23,3.66-9.24,4.61-14.63,3.84-4.14-.59-7.2-3.04-10.03-6.24l15.66-17.74Z"/>
    <path class="cls-2" d="M240.22,115.43c1.29-4.63,2.06-9.3,1.09-14.11-.9-4.46-4.2-6.93-8.69-6.38-4.28,.52-7.91,2.63-11.47,4.88-3.46,2.19-6.6,4.78-9.71,7.43-.13,.11-.34,.19-.29,.45,9.71,3.31,18.66,7.98,26.25,15.09,1.27-2.3,2.11-4.82,2.82-7.37Z"/>
    <path class="cls-2" d="M247.67,161.01c-.95-2.06-1.85-4.04-2.76-6.01-.24-.53,.19-.62,.46-.85,2.57-2.05,4.28-4.6,4.56-7.96,.02-.19,.09-.39,.04-.56-.57-2,.42-3.52,1.48-5.04,.34-.49,.56-1.08,.93-1.54,.69-.85,.51-1.24-.5-1.59-2.01-.7-4.01-.96-6.04-.22-.61,.22-.71,.06-.89-.49-1.57-4.78-5.03-7.61-9.69-9.15,1.62,2.6,3.15,5.19,4.09,8.09,.64,2,1.19,4.02,1.45,6.12,.62,5.03,1.24,10.07,1.09,15.16-.01,.44,.1,.79,.31,1.16,2.97,5.2,5.93,10.4,8.89,15.6,.03,.06,.11,.1,.22,.2,1.75-7.04,2.86-14.08,1.66-21.59-1.23,3.38-3.05,6.08-5.29,8.67Z"/>
    <path class="cls-2" d="M180.27,150.89c-5.75,6.17-11.52,12.32-17.29,18.48-.07,.08-.13,.18-.22,.33,18.19-.8,32.8,5.52,43.11,20.95,.29-1.4,.49-2.81,.51-4.22,.19-9.29-2.98-17.2-9.9-23.47-4.79-4.33-10.03-8.12-15.13-12.08-.41-.32-.64-.46-1.08,0Z"/>
  </g>
  <g>
    <rect class="cls-2" x="325.92" y="108.46" width="684.58" height="142.38"/>
    <g>
      <g>
        <path class="cls-1" d="M502.48,199.65v15.53h-57.05v-71.06h55.73v15.53h-35.84v11.98h31.57v15.02h-31.57v12.99h37.16Z"/>
        <path class="cls-1" d="M585.72,144.12l-30.46,71.06h-19.8l-30.35-71.06h21.72l19.29,46.29,19.69-46.29h19.9Z"/>
        <path class="cls-1" d="M634.35,196.2h-39.59l-8.53,18.98h-7.82l32.49-71.06h7.41l32.49,71.06h-7.92l-8.53-18.98Zm-2.74-6.09l-17.06-38.17-17.05,38.17h34.11Z"/>
        <path class="cls-1" d="M809.77,144.12v71.06h-7.21v-56.85l-27.92,47.81h-3.55l-27.92-47.51v56.55h-7.21v-71.06h6.19l30.86,52.69,30.56-52.69h6.19Z"/>
        <path class="cls-1" d="M844.85,211.07c-5.72-3.15-10.19-7.46-13.4-12.94-3.22-5.48-4.82-11.64-4.82-18.48s1.61-12.99,4.82-18.48c3.21-5.48,7.68-9.8,13.4-12.94,5.72-3.15,12.1-4.72,19.14-4.72s13.38,1.56,19.03,4.67c5.65,3.11,10.1,7.43,13.35,12.94,3.25,5.52,4.87,11.69,4.87,18.53s-1.62,13.01-4.87,18.53c-3.25,5.52-7.7,9.83-13.35,12.94-5.65,3.11-12,4.67-19.03,4.67s-13.42-1.57-19.14-4.72Zm34.36-5.79c4.53-2.54,8.09-6.06,10.66-10.56,2.57-4.5,3.86-9.53,3.86-15.08s-1.29-10.57-3.86-15.07c-2.57-4.5-6.13-8.02-10.66-10.56-4.53-2.54-9.61-3.81-15.23-3.81s-10.71,1.27-15.28,3.81c-4.57,2.54-8.16,6.06-10.76,10.56-2.61,4.5-3.91,9.53-3.91,15.07s1.3,10.58,3.91,15.08c2.6,4.5,6.19,8.02,10.76,10.56s9.66,3.81,15.28,3.81,10.69-1.27,15.23-3.81Z"/>
        <path class="cls-1" d="M429.9,160.87c-3.32-5.34-7.99-9.47-14.01-12.38-6.02-2.91-12.93-4.37-20.71-4.37h-33.6v16.04h20.1s12.69,0,12.69,0c6.09,0,10.98,1.73,14.67,5.18,3.69,3.45,5.53,8.22,5.53,14.31s-1.85,10.86-5.53,14.31c-3.69,3.45-8.58,5.18-14.67,5.18h-12.69v-.03h-4.03v-27.48h-16.07v43.55h33.6c7.78,0,14.68-1.45,20.71-4.37,6.02-2.91,10.69-7.04,14.01-12.38,3.32-5.35,4.97-11.61,4.97-18.78s-1.66-13.43-4.97-18.78Z"/>
      </g>
      <path class="cls-1" d="M701.96,190.82c5.21-1.69,9.22-4.45,12.03-8.27,2.81-3.82,4.21-8.51,4.21-14.06,0-7.58-2.57-13.54-7.72-17.87-5.14-4.33-12.25-6.5-21.32-6.5h-26.6v6.51l26.39-.02c7.04,0,12.42,1.54,16.14,4.62,3.72,3.08,5.58,7.5,5.58,13.25s-1.86,9.98-5.58,13.1c-3.72,3.11-9.1,4.67-16.14,4.67h-26.39v28.93h7.51v-22.54h19.08c1.96,0,3.86-.1,5.69-.3l16.24,22.84h8.22l-17.36-24.36Z"/>
      <path class="cls-1" d="M957.48,190.82c5.21-1.69,9.22-4.45,12.03-8.27,2.81-3.82,4.21-8.51,4.21-14.06,0-7.58-2.57-13.54-7.72-17.87-5.14-4.33-12.25-6.5-21.32-6.5h-26.6v6.51l26.39-.02c7.04,0,12.42,1.54,16.14,4.62,3.72,3.08,5.58,7.5,5.58,13.25s-1.86,9.98-5.58,13.1c-3.72,3.11-9.1,4.67-16.14,4.67h-26.39v28.93h7.51v-22.54h19.09c1.96,0,3.86-.1,5.68-.3l16.24,22.84h8.22l-17.36-24.36Z"/>
    </g>
  </g>
</svg>