<svg version="1.1" id="Layer_1" xmlns="http://www.w3.org/2000/svg" xmlns:xlink="http://www.w3.org/1999/xlink" x="0px" y="0px"
	 width="100%" viewBox="0 0 1024 1024" enable-background="new 0 0 1024 1024" xml:space="preserve">
<path fill="#000000" opacity="1.000000" stroke="none" 
	d="
M359.631805,503.299805 
	C348.150726,486.354950 340.673004,468.164856 337.479889,448.293030 
	C336.800690,444.066376 335.101562,441.892181 330.483704,441.736816 
	C326.193451,441.592468 321.893188,440.692719 317.670105,439.786438 
	C298.664368,435.707886 288.423950,422.710297 283.787781,404.922760 
	C280.084290,390.713470 279.513824,375.986633 278.688690,361.359863 
	C278.382172,355.926422 278.834229,350.327759 272.324951,347.509857 
	C269.773712,346.405457 269.102661,343.254486 269.080261,340.558838 
	C269.027649,334.233215 268.997192,327.886169 269.449066,321.583038 
	C269.989319,314.047455 272.393890,311.491272 279.881958,309.652222 
	C290.735107,306.986755 301.805420,305.615753 312.916962,304.747375 
	C323.863281,303.891876 334.841003,303.430573 345.807892,302.852173 
	C347.756195,302.749451 349.466827,302.464233 350.253876,300.382874 
	C354.662476,288.724274 359.154083,277.101898 365.890991,266.106964 
	C352.994568,256.970154 344.968628,244.540680 339.213715,230.735001 
	C329.469574,207.359283 325.673431,183.243668 334.856964,158.817825 
	C340.304749,144.328262 350.188171,133.068710 365.755890,129.149170 
	C383.070801,124.789711 392.331238,127.738373 401.786926,141.622925 
	C413.127960,158.275864 420.030853,176.716263 423.304871,196.539307 
	C424.270172,202.383774 424.960938,208.273575 425.766846,214.065826 
	C428.299500,214.690491 430.040741,213.530014 431.831573,212.790359 
	C457.071503,202.365616 483.353027,196.906494 510.644409,196.955429 
	C539.946472,197.007980 568.327942,201.970886 594.975037,214.739853 
	C598.807739,216.576416 600.639160,216.023697 602.571411,212.045197 
	C613.217651,190.124664 627.025452,170.767166 648.425049,157.927704 
	C663.635132,148.801804 679.921326,144.869339 697.717468,147.283127 
	C723.631958,150.798065 737.704529,172.104874 738.226929,193.388809 
	C739.166870,231.689651 720.454346,258.804565 688.821167,278.288208 
	C682.861938,281.958618 676.123779,284.020386 669.595520,287.420013 
	C673.090698,293.710449 676.564758,299.692383 679.784424,305.808258 
	C689.429993,324.129944 695.159241,343.604065 697.546875,364.201538 
	C698.277405,370.503296 698.153015,376.807587 698.823914,383.094696 
	C699.252502,387.111206 700.960144,388.885315 704.530762,390.061798 
	C713.549988,393.033539 722.510864,396.259155 730.942993,400.651764 
	C749.240540,410.183533 767.852295,419.187653 784.892761,430.943542 
	C791.063477,435.200562 797.206604,439.635773 800.107300,447.042755 
	C800.637512,448.396729 801.732361,449.053040 802.899170,449.748352 
	C820.990540,460.529724 833.473694,476.718201 845.054321,493.730164 
	C847.012085,496.606201 848.438416,499.876465 848.385681,503.536713 
	C848.359619,505.344757 849.411926,506.619232 850.416443,507.972626 
	C863.230713,525.237549 872.613647,544.299866 879.963928,564.429749 
	C881.826782,569.531372 881.951111,574.633667 879.460266,579.450806 
	C877.866577,582.532898 878.435425,585.167969 879.733826,587.980164 
	C885.922363,601.384521 889.627747,615.485535 891.777405,630.062073 
	C892.954468,638.043701 892.439270,645.380920 885.881531,651.119812 
	C884.113342,652.667358 884.408020,654.577087 884.729065,656.645264 
	C886.649536,669.016968 887.263733,681.443604 886.330688,693.955139 
	C885.691772,702.523499 881.806946,708.338989 873.322693,710.775696 
	C870.950928,711.456909 868.458679,711.928650 866.347168,713.520630 
	C866.527588,715.615906 868.281067,716.539795 869.517273,717.751221 
	C893.481567,741.233398 906.908997,769.979187 907.354919,803.236328 
	C907.802856,836.646240 894.461609,864.059143 864.111511,881.187988 
	C862.323486,882.197083 860.968872,883.497986 859.721619,885.130676 
	C848.996094,899.170105 834.712219,906.208923 817.077393,906.218262 
	C813.745728,906.219971 811.200439,907.032898 808.440430,909.029968 
	C795.163208,918.637573 779.965210,920.600403 764.171204,918.810669 
	C760.497314,918.394409 757.442993,918.526917 754.145386,920.189392 
	C740.140015,927.250000 725.363647,929.101013 709.997437,926.060547 
	C708.403748,925.745178 707.043640,926.013977 705.634155,926.536926 
	C689.214905,932.629700 672.360718,932.100769 655.406738,929.765991 
	C654.061707,929.580750 652.833435,929.473328 651.491211,929.767029 
	C630.081604,934.450562 608.832825,932.601929 587.649841,928.141846 
	C586.700439,927.942017 585.677002,927.780090 584.732971,927.914795 
	C567.037598,930.439941 549.571777,928.402283 532.198914,925.152100 
	C523.959900,923.610779 516.219666,920.444702 508.869690,916.464417 
	C499.338989,911.303223 497.382904,902.891968 503.587311,893.917664 
	C505.638611,890.950562 508.147614,888.299866 510.804504,885.070435 
	C503.257690,881.127747 495.960114,877.499268 489.940216,871.933167 
	C489.451599,871.481384 488.751556,871.181580 488.423676,870.643982 
	C483.506653,862.581604 475.405762,861.931458 467.208405,861.408203 
	C449.490601,860.277222 432.448700,855.700195 415.391205,851.196228 
	C410.244446,849.837280 405.043457,848.684509 399.892029,847.342346 
	C388.254639,844.310425 377.087250,847.653992 365.858978,849.855713 
	C351.642761,852.643433 337.476593,855.434265 322.863434,855.426147 
	C302.487122,855.414734 285.380524,848.066650 272.011597,832.880554 
	C258.084686,817.060608 248.519852,798.987122 246.626923,777.540344 
	C246.352020,774.425781 245.028137,772.661743 241.790451,772.285400 
	C230.904373,771.019836 220.015945,769.758911 209.154037,768.304810 
	C193.822418,766.252197 181.087692,759.801331 173.553101,745.637146 
	C157.124756,714.753845 140.894699,683.765137 124.580551,652.821106 
	C110.519432,626.150635 97.121422,599.101746 82.191261,572.926880 
	C68.904533,549.633118 86.842880,536.737976 104.543304,537.408508 
	C116.184715,537.849426 127.795105,539.123535 139.417557,540.047668 
	C154.509109,541.247559 169.599472,542.462341 184.689178,543.685242 
	C208.233856,545.593323 231.774139,547.557007 255.322906,549.413025 
	C270.250305,550.589600 285.191284,551.592651 300.123322,552.712036 
	C312.898682,553.669678 325.730743,554.198669 338.427277,555.795593 
	C353.494110,557.690613 364.555603,565.942078 371.623352,579.446899 
	C372.304260,580.747986 373.119171,581.978943 374.057892,583.554504 
	C380.545441,580.125122 384.696503,574.873047 387.852325,568.749268 
	C392.245911,560.223694 394.177277,550.900879 396.364502,541.665894 
	C396.915955,539.337463 396.012115,537.876282 394.067932,536.704834 
	C380.118439,528.299744 369.119476,516.831177 359.631805,503.299805 
M537.412842,678.151367 
	C534.091431,684.016113 526.961182,683.724304 522.228394,688.054565 
	C526.722046,688.814087 531.215698,689.573547 535.700012,690.331482 
	C536.840454,685.057068 540.324280,683.727234 545.667236,687.210083 
	C552.582703,691.717957 560.236206,693.553223 568.109985,695.045654 
	C574.685242,696.291992 581.328064,696.569336 587.996277,696.755249 
	C594.795166,696.944702 598.694580,699.865601 599.081482,705.824646 
	C599.368347,710.242493 601.578064,711.453247 605.329529,711.916138 
	C621.517395,713.913391 636.872498,710.687744 651.517822,704.098083 
	C668.150146,696.614319 682.756531,686.384460 690.096619,668.899780 
	C698.407898,649.101624 701.252014,628.575012 695.456360,607.409851 
	C694.701965,604.655151 693.447571,602.546509 690.541260,601.681152 
	C674.492126,596.902283 663.039978,584.926880 650.876953,574.693726 
	C640.549011,566.004395 636.448120,552.569458 633.805359,539.293152 
	C632.979858,535.146057 632.669678,530.896423 632.029846,525.972290 
	C617.405701,532.615662 603.361572,539.001648 587.524902,541.119812 
	C587.927307,537.975037 589.881653,537.834412 591.268616,537.171509 
	C599.867249,533.061279 607.976562,528.080688 615.678406,522.546814 
	C648.444031,499.004120 667.567017,466.459045 677.385681,427.916199 
	C678.438721,423.782593 678.385742,419.693512 675.727051,415.939117 
	C674.429871,414.107422 673.970093,411.904510 675.111572,409.774536 
	C677.674683,404.991547 677.128174,400.143860 675.673218,395.218079 
	C674.855469,392.449677 674.632019,389.634277 675.725830,386.879395 
	C676.229980,385.609497 677.023010,384.400848 678.586426,384.476685 
	C680.199463,384.554962 680.667175,385.854279 681.013977,387.225800 
	C681.405090,388.772705 680.833191,390.664520 682.758789,392.219147 
	C682.758789,386.929749 682.804443,382.103027 682.748230,377.277496 
	C682.659607,369.673431 682.267212,368.935577 675.043762,366.457397 
	C660.397156,361.432587 645.747681,356.398651 630.760193,352.448853 
	C628.980469,351.979797 627.254761,351.648895 625.927551,350.143066 
	C622.831360,346.630127 619.239807,348.626495 615.796753,349.437378 
	C612.533447,350.205933 612.011597,352.723145 611.888123,355.580139 
	C611.327576,368.548645 610.123474,381.449341 608.325195,394.316376 
	C604.763062,419.804657 591.567200,435.015778 567.627136,439.106750 
	C546.564392,442.706024 525.271484,443.503204 503.935455,441.290466 
	C474.314209,438.218445 455.883423,422.012970 447.806488,393.608185 
	C444.841370,383.180481 442.576569,372.619568 441.603333,361.795410 
	C441.339111,358.856689 441.274506,355.540497 437.485199,354.597870 
	C432.777679,353.426819 428.082306,352.760620 423.170410,353.825684 
	C418.916595,354.748108 417.339355,356.722656 417.084167,361.279510 
	C416.217133,376.760498 414.257233,392.065369 407.972076,406.541290 
	C400.983002,422.638519 396.940857,439.686554 392.934235,456.689850 
	C391.225739,463.940338 391.735657,471.200592 396.103760,477.808868 
	C404.651398,490.740265 417.508698,493.357300 430.930908,490.039093 
	C460.051819,482.839813 486.597046,470.597656 504.941956,445.241089 
	C505.980682,443.805389 506.983765,442.554871 509.001556,443.232422 
	C517.814331,446.191620 523.546814,452.406555 528.301453,461.138550 
	C524.749573,460.584442 522.134216,460.308655 519.582153,459.745941 
	C516.153442,458.989838 514.372559,459.645905 514.042419,463.705078 
	C513.490051,470.497009 512.199707,477.230042 510.198059,483.762054 
	C509.345184,486.545349 508.917725,489.870605 505.337708,491.191467 
	C504.126404,487.856842 505.444916,484.972137 505.733063,482.043793 
	C506.315765,476.122559 504.567627,474.300446 499.059082,475.948181 
	C490.951202,478.373444 483.814301,482.620667 478.106903,488.964661 
	C475.419495,491.951843 474.297852,495.149261 476.018921,499.423828 
	C477.732605,503.679993 480.209930,506.897064 483.980957,509.306580 
	C485.221832,510.099426 486.866150,510.874725 486.435577,512.677917 
	C485.979309,514.588684 484.118286,514.966980 482.462433,515.122925 
	C480.647919,515.293701 478.756653,515.428772 476.982117,515.112305 
	C468.121185,513.532104 460.759644,509.251099 455.062683,502.268524 
	C453.222626,500.013214 451.456726,498.519379 448.292145,499.886658 
	C441.186859,502.956512 433.623016,504.289551 425.975586,504.873962 
	C394.803070,507.256012 373.868835,478.079620 379.510315,455.236603 
	C380.347565,451.846558 380.957520,448.395020 381.918060,445.042267 
	C382.852448,441.780731 381.489380,440.525421 378.487518,440.836853 
	C370.874359,441.626770 363.288605,442.621338 355.601776,442.514984 
	C353.142029,442.480957 351.123230,443.910706 351.744324,446.583374 
	C353.111786,452.467773 353.268280,458.798859 358.262360,463.435181 
	C360.542389,465.551910 363.162231,468.733276 362.576569,471.599976 
	C361.270325,477.994141 364.756012,482.199585 367.320282,487.226196 
	C377.298431,506.785858 392.548492,520.956970 411.466644,531.423096 
	C426.177673,539.561707 442.149750,544.391052 458.580933,547.410706 
	C474.233734,550.287354 489.838104,554.524963 506.042999,551.796082 
	C506.867920,551.657166 507.723267,551.756470 508.235229,552.845825 
	C508.351196,555.521729 506.078339,555.165588 504.428467,555.475159 
	C484.172333,559.276184 464.029846,558.482056 443.979187,553.944336 
	C441.222839,553.320496 438.303528,552.447266 435.653778,553.798096 
	C432.231964,555.542480 429.217438,554.828796 426.165436,553.147949 
	C423.105896,551.462891 420.056305,549.759277 417.017090,548.037903 
	C410.266998,544.214783 409.444183,544.517639 407.703522,551.901672 
	C403.692566,568.916199 397.498108,584.685181 383.036743,595.827087 
	C381.481049,597.025635 380.415405,598.373657 381.640778,600.492493 
	C382.718903,602.356628 384.277832,603.065613 386.260254,602.490112 
	C391.048096,601.100464 395.811798,601.699890 400.620911,602.305542 
	C403.095856,602.617126 406.174744,604.276245 407.762268,600.994446 
	C409.245880,597.927490 409.804565,594.579956 407.100677,591.648132 
	C403.798248,588.067261 404.764191,584.718262 407.618530,581.442932 
	C415.384796,572.531311 420.018951,573.086121 425.335602,583.579956 
	C425.711945,584.322754 426.115723,585.056763 426.424805,585.827637 
	C433.423584,603.283081 440.372589,620.758606 447.437347,638.187256 
	C448.637421,641.147827 448.948883,643.596252 445.896851,645.565186 
	C444.281677,646.607239 444.134155,648.241455 444.368896,650.003601 
	C445.357513,657.425171 446.342010,664.847595 447.261749,672.277893 
	C447.497345,674.181152 448.281036,675.413086 450.284698,675.613647 
	C454.588593,676.044434 458.890076,676.507202 463.200226,676.863647 
	C464.754578,676.992188 466.562195,676.721008 466.592499,674.791565 
	C466.649139,671.185669 467.616760,667.297058 465.376831,664.075989 
	C460.796936,657.489929 460.780273,650.113159 462.231934,642.921692 
	C465.937622,624.564087 479.053711,614.744812 495.560303,609.018188 
	C510.996246,603.662903 526.685974,604.541016 542.192749,609.457520 
	C549.176086,611.671631 556.108215,614.632080 563.400757,615.064087 
	C586.125244,616.410278 596.142700,610.166504 599.589966,590.210876 
	C600.421387,585.398254 600.831543,580.512878 601.451233,575.533508 
	C611.396240,579.375549 614.132812,583.525940 613.243286,592.724548 
	C613.147217,593.718140 613.143616,594.720276 613.080811,595.717468 
	C612.116577,611.021179 604.293823,621.189636 589.938171,626.314514 
	C578.616882,630.356201 567.059753,630.465759 555.514221,627.495544 
	C549.071899,625.838318 542.778809,623.606995 536.399048,621.699097 
	C521.211548,617.157288 506.407288,618.166992 492.199921,625.256775 
	C485.787903,628.456482 480.414764,632.915588 477.291443,639.861572 
	C482.003418,641.199280 485.774384,639.876953 489.661957,639.081970 
	C493.438904,638.309753 497.260468,636.951538 501.476227,637.945984 
	C500.456360,640.139954 498.462128,640.343384 496.955750,641.167725 
	C489.957428,644.997803 484.289520,650.329285 482.147125,658.009827 
	C478.592773,670.752075 481.927368,679.554443 492.822174,683.385132 
	C497.592255,685.062256 502.611969,685.117249 507.639587,684.263428 
	C516.253418,682.800537 524.191467,679.232117 532.408264,676.526733 
	C534.208374,675.934082 536.514038,673.848083 537.412842,678.151367 
M153.933746,681.644775 
	C156.600342,686.640442 159.280136,691.629028 161.930939,696.633057 
	C168.947067,709.877747 175.939178,723.135193 182.962982,736.375732 
	C188.358215,746.546448 196.840012,752.291443 208.212753,753.790771 
	C221.405106,755.530090 234.595596,757.287231 247.800613,758.926025 
	C274.208344,762.203186 300.621582,765.436646 327.039642,768.629333 
	C354.123932,771.902405 381.214539,775.124023 408.307281,778.326294 
	C415.902557,779.223999 423.515289,779.973999 431.862549,780.871643 
	C426.916138,774.778992 424.396729,768.562866 421.546753,762.569885 
	C396.084137,709.026245 370.691254,655.449402 345.339050,601.853333 
	C342.919128,596.737427 339.885437,592.379639 334.686462,589.725769 
	C333.343689,589.040344 331.594666,588.273376 331.638611,586.085449 
	C333.784698,584.013611 336.076263,585.300964 338.099762,586.099182 
	C343.587341,588.263672 347.616730,592.151672 350.235168,597.438354 
	C351.934967,600.870361 353.534088,604.352539 355.162079,607.819824 
	C375.477753,651.087830 395.767670,694.367981 416.119843,737.618835 
	C421.225494,748.468933 426.372925,759.304871 431.786957,770.002686 
	C436.628387,779.569153 443.734375,782.611145 454.169342,780.011780 
	C457.070496,779.289124 459.929565,778.349976 462.743317,777.331604 
	C490.767700,767.189087 518.796509,757.058228 546.784668,746.816406 
	C558.667908,742.467896 570.479309,737.919800 582.271729,733.329590 
	C584.601135,732.422974 587.235413,731.411804 587.501648,728.086182 
	C586.181885,727.492920 585.307068,728.114197 584.416260,728.441589 
	C566.756042,734.931702 549.122375,741.494873 531.436096,747.913086 
	C508.268829,756.320312 485.089050,764.694946 461.859528,772.928040 
	C447.575073,777.990723 439.343231,774.790344 432.620178,761.544800 
	C427.270050,751.004211 422.208984,740.314514 417.142181,729.632874 
	C398.797607,690.959595 380.506592,652.260864 362.190765,613.573914 
	C358.628601,606.049927 355.309967,598.403259 350.803802,591.359009 
	C347.289185,585.864868 342.420868,582.144165 335.955872,581.377136 
	C325.226685,580.104309 314.449799,579.185730 303.674500,578.359741 
	C283.765839,576.833496 263.835419,575.588928 243.929504,574.029724 
	C221.041351,572.236938 198.174393,570.175171 175.289948,568.333008 
	C154.898758,566.691528 134.505493,565.050537 114.093781,563.702698 
	C106.868881,563.225708 99.661766,561.765869 91.196640,562.376709 
	C112.256927,602.428894 132.914520,641.715271 153.933746,681.644775 
M651.829224,829.209167 
	C659.764221,825.009216 668.134094,822.567444 677.198914,822.738403 
	C678.654114,822.765808 680.334167,822.630493 681.546692,821.935730 
	C692.692871,815.549988 704.700439,811.334229 716.575256,806.565918 
	C731.703857,800.491089 746.844971,793.580505 759.723511,782.898621 
	C762.437256,780.647705 763.971191,778.564209 763.760254,775.018921 
	C762.993408,762.125183 764.215088,749.426025 767.519287,736.905823 
	C768.874451,731.770813 769.628540,726.480164 770.817810,721.297424 
	C771.822693,716.918091 770.209656,714.784912 765.944702,713.220886 
	C749.170471,707.069519 736.546753,696.109863 728.133850,680.146545 
	C722.589417,669.626221 720.921204,658.423035 720.837646,646.855408 
	C720.802185,641.949280 717.409973,640.238770 713.991211,639.637634 
	C709.990234,638.934204 710.759644,643.133240 710.381409,645.374512 
	C707.402405,663.023804 703.186340,680.242981 694.630188,696.173706 
	C692.048462,700.980530 693.676453,704.579102 699.088196,707.537231 
	C704.343994,710.410217 709.593689,713.294434 714.842651,716.179932 
	C715.990784,716.811035 717.325134,717.313049 717.091492,719.031799 
	C714.218018,720.341187 713.829590,720.564758 711.539307,720.201294 
	C700.252075,718.409912 688.924927,718.814575 677.683228,720.140564 
	C646.673279,723.798523 619.504944,735.301758 599.033264,759.901245 
	C597.075378,762.254028 594.442627,764.245178 594.891479,767.972229 
	C595.056946,769.346252 593.666016,769.915100 592.474548,770.693726 
	C587.467529,773.965637 586.740417,777.222351 589.136230,782.850586 
	C589.583557,783.901428 589.937012,785.071472 589.983826,786.201050 
	C590.362793,795.351868 590.830750,804.504578 590.909424,813.659851 
	C590.951416,818.542175 590.150146,823.401367 587.980835,828.241455 
	C585.879333,826.246643 586.032471,824.000732 585.699463,821.951904 
	C582.176331,800.276978 574.479370,780.947876 556.242737,767.064148 
	C550.041748,762.343323 544.297058,759.668701 536.829346,764.228577 
	C532.845703,766.661072 532.106140,768.286865 535.932129,771.123596 
	C548.104248,780.148804 554.010071,793.466553 560.566284,806.342224 
	C562.066589,809.288574 563.187683,812.455933 560.237366,815.543335 
	C559.482788,816.333069 559.396423,818.105591 559.550720,819.359192 
	C560.163635,824.338806 560.183838,829.325500 560.191650,834.324707 
	C560.193542,835.497559 559.872498,837.093567 561.894592,837.419678 
	C563.760376,835.171448 562.824280,831.337341 566.409302,829.700256 
	C568.493347,833.862793 570.859863,837.826233 572.467041,842.076904 
	C573.482849,844.763489 571.661743,846.627502 568.752808,846.495422 
	C567.330872,846.430969 565.920776,845.608215 564.551331,845.021362 
	C563.125671,844.410583 561.554932,843.607605 560.632996,845.427856 
	C559.344055,847.972961 558.416565,850.748901 559.707581,853.582581 
	C560.557068,855.447144 562.100586,855.495911 563.936462,854.805786 
	C566.737000,853.752747 569.631775,852.551880 572.668518,853.052612 
	C580.080017,854.274475 586.146912,850.715027 591.670593,846.977173 
	C601.659729,840.217773 612.658936,837.284058 624.354980,836.726562 
	C633.898743,836.271606 643.268738,835.852356 651.829224,829.209167 
M501.229584,210.977264 
	C467.690369,212.473694 436.472443,221.389664 409.084076,241.244751 
	C389.516357,255.430313 374.822571,273.721313 366.501587,296.719238 
	C364.465637,302.346344 365.207062,303.432312 371.270721,303.667664 
	C374.600891,303.796875 377.952393,303.679443 381.261017,304.008026 
	C392.381958,305.112396 404.481934,305.268341 412.288666,314.191498 
	C418.840210,321.679993 425.749878,323.052155 434.639130,321.866394 
	C438.277954,321.381012 441.300110,320.711609 443.965240,318.000641 
	C450.975891,310.869385 459.793732,306.840607 469.438202,305.064484 
	C485.978577,302.018341 502.711517,300.254059 519.535828,300.023590 
	C545.361755,299.669830 571.155090,300.501587 596.684509,304.819031 
	C607.379639,306.627747 618.168213,308.695923 625.105713,318.553802 
	C625.634399,319.305023 626.655273,319.836945 627.557983,320.178680 
	C640.793335,325.189758 654.044434,330.159546 667.300781,335.114899 
	C669.190674,335.821350 671.104065,336.463776 672.870422,334.701721 
	C674.804443,332.772491 674.708984,330.688446 673.834229,328.275391 
	C669.900208,317.423187 664.765991,307.186279 658.646667,297.403442 
	C656.387573,293.791870 653.791687,291.925171 649.269897,292.798645 
	C646.726929,293.289886 643.973206,292.602325 641.314453,292.601868 
	C636.881226,292.601135 632.567871,290.572601 628.355469,291.554932 
	C627.000977,293.016815 628.692078,294.889954 626.588196,296.219910 
	C622.065063,293.894409 618.098877,290.341827 613.837402,287.251251 
	C595.553223,273.991119 586.071472,257.431122 594.231750,234.373413 
	C595.710571,230.194717 592.470947,228.966125 589.943481,227.703049 
	C562.271606,213.874176 532.739563,209.616928 501.229584,210.977264 
M704.777527,482.305725 
	C710.506836,473.717102 716.156067,465.082916 721.152161,456.032043 
	C723.052002,452.590393 725.152649,449.338745 720.304810,445.478149 
	C725.879089,445.431488 728.422729,442.783325 729.870728,438.716675 
	C731.206909,434.964081 732.611450,431.249603 734.284973,427.607178 
	C736.150818,423.546112 735.561401,420.016418 731.530884,416.731476 
	C723.532654,410.212891 714.202332,406.984100 704.591064,404.183167 
	C698.687866,402.462830 698.124939,402.861847 697.048096,408.815521 
	C694.123596,424.984314 691.748657,441.271606 684.520630,456.336853 
	C674.763916,476.672913 664.105835,496.393127 648.174377,512.733398 
	C647.096863,513.838623 646.374878,515.051819 646.346558,516.687805 
	C646.023865,535.324951 650.631470,552.289246 663.366028,566.426270 
	C667.635254,571.165649 671.999146,571.863770 677.696899,569.054443 
	C687.757690,564.093933 696.794006,557.542297 705.623596,550.718506 
	C729.305237,532.416382 751.133850,512.258423 768.626892,487.734436 
	C770.747498,484.761475 770.508240,482.750183 767.956787,480.510742 
	C758.915039,472.574524 749.277527,465.523560 738.436035,460.194366 
	C736.053650,459.023285 734.588745,459.271271 733.178162,461.760864 
	C729.979614,467.405945 726.583252,472.946716 723.079224,478.409180 
	C717.245544,487.503265 712.267639,497.673157 704.139343,504.568695 
	C694.596863,512.664062 687.752014,522.807800 679.621399,531.917236 
	C674.784302,537.336609 670.462769,543.282532 665.205444,548.379211 
	C663.989746,549.557800 662.812439,551.774963 660.705383,550.386292 
	C658.723389,549.080139 659.136536,546.878418 659.916443,544.935730 
	C661.731934,540.413818 664.467957,536.441956 667.392761,532.579651 
	C679.856384,516.121033 692.799194,500.019562 704.777527,482.305725 
M272.368225,811.158997 
	C275.264771,816.273071 279.008392,820.773682 283.060455,824.950928 
	C291.802795,833.963440 302.264984,839.768799 315.012390,840.707458 
	C334.558807,842.146790 353.422577,837.900696 372.243378,833.531189 
	C376.940247,832.440735 377.438690,830.632141 374.222076,826.963440 
	C370.137177,822.304504 366.344818,817.438354 363.661957,811.862793 
	C362.181671,808.786499 359.817932,805.785278 361.028320,800.114441 
	C390.491364,831.597595 427.053864,844.028931 468.379944,847.266357 
	C468.082397,844.880737 468.081909,843.877014 467.812866,842.951355 
	C467.396545,841.519043 466.824249,840.129028 466.270538,838.740051 
	C461.264374,826.182983 456.761871,813.523926 456.601837,799.740112 
	C456.544312,794.787415 454.478760,793.376892 448.808502,794.471008 
	C442.155762,795.754639 435.566315,795.368469 428.929474,794.620117 
	C421.657104,793.800110 414.366119,793.141663 407.098511,792.283630 
	C390.262939,790.295837 373.294495,789.557983 356.547638,786.664062 
	C352.095306,785.894653 346.985504,783.985046 343.728302,789.449036 
	C337.917969,782.714844 331.419708,782.962891 327.489197,786.098450 
	C324.770264,783.576477 324.770264,783.576477 321.398682,783.321655 
	C327.196777,797.248291 330.080139,811.256714 324.619141,826.177551 
	C322.008179,824.887390 322.166809,823.264099 322.043060,821.835632 
	C320.884399,808.461670 315.797882,796.458496 309.299072,784.927002 
	C307.445801,781.638550 304.864136,779.735046 301.015656,779.332703 
	C292.431274,778.434998 283.875732,777.258728 275.288788,776.389832 
	C270.265808,775.881470 265.205048,775.746460 259.832703,775.423767 
	C260.890839,788.623840 265.645538,799.854309 272.368225,811.158997 
M645.899719,278.443665 
	C662.205322,276.264160 677.270447,270.746765 690.496338,260.916351 
	C712.679138,244.428391 725.283081,222.828873 724.774353,194.548004 
	C724.412292,174.421661 709.649109,159.839279 689.478149,159.298416 
	C674.822693,158.905457 662.070984,163.950119 650.439270,172.306061 
	C626.083252,189.802795 602.182678,233.749771 600.669983,263.530609 
	C600.478394,267.303711 602.809509,268.719391 605.989990,268.534454 
	C622.765564,267.559143 634.708496,259.071899 642.398804,244.399200 
	C645.493958,238.493668 647.629333,232.164749 649.696533,225.827286 
	C653.158142,215.214874 656.508118,204.493881 662.657349,195.076263 
	C671.248230,181.919266 682.248840,172.391205 699.287659,173.121811 
	C700.088440,173.156143 701.026306,173.097946 701.691040,172.717361 
	C707.566833,169.353241 710.198303,174.646042 713.375793,177.436569 
	C716.314331,180.017273 715.048584,183.396606 713.358276,186.249771 
	C711.484985,186.492584 710.550293,185.384323 709.450439,184.707733 
	C704.010864,181.361389 698.476562,181.206558 692.847961,184.159866 
	C688.390503,186.498688 684.413147,189.446518 680.987915,193.183289 
	C672.875732,202.033279 668.724731,212.860779 665.280518,224.071136 
	C661.855774,235.218018 658.699158,246.577789 652.061768,256.295288 
	C644.088928,267.968018 634.206116,277.096008 618.560974,276.168488 
	C617.587524,276.110779 616.507263,276.041077 615.716064,278.477386 
	C625.550171,282.024689 635.369385,278.202423 645.899719,278.443665 
M746.037537,643.613403 
	C743.423706,644.110474 740.806580,644.591125 738.197144,645.110229 
	C736.324585,645.482666 735.314087,646.593750 735.260437,648.567261 
	C735.023621,657.280090 735.156128,665.845947 740.040649,673.659302 
	C747.521057,685.625061 757.643677,694.444519 770.589294,699.942444 
	C784.355469,705.788757 798.900391,706.924866 813.659607,706.744812 
	C831.607239,706.525879 849.027222,703.237854 866.191345,698.220520 
	C870.689209,696.905762 873.588745,694.649597 873.067566,689.467407 
	C872.953613,688.334290 873.403381,687.156189 873.419434,685.996399 
	C873.535522,677.623962 874.494019,669.190125 872.358582,661.048462 
	C869.943359,660.858459 869.505859,662.064758 869.219849,663.455688 
	C868.810547,665.446289 867.402344,666.368042 865.567200,666.036926 
	C857.181274,664.523804 850.280518,668.824097 843.521790,672.314087 
	C834.647705,676.896240 825.607117,680.264771 815.648010,679.985596 
	C799.660095,679.537292 783.647156,680.752136 767.849976,681.969849 
	C754.892700,682.968628 749.907593,675.681519 743.055603,668.224915 
	C745.383057,666.934204 747.130249,667.817017 748.846924,668.110535 
	C753.769165,668.952271 758.697876,669.561829 763.696533,669.877319 
	C787.993164,671.411194 811.458191,666.711304 834.616943,660.250305 
	C846.971863,656.803406 858.888428,651.974670 870.019653,645.451355 
	C878.418701,640.529175 879.923828,637.366455 878.066406,627.848816 
	C876.824036,621.482361 875.357483,615.153809 873.790527,608.858276 
	C872.568909,603.950134 871.748779,598.847290 869.335876,595.470459 
	C858.539185,599.689392 849.157104,605.493713 839.888428,612.367981 
	C840.443298,615.095032 838.567871,616.691711 835.866516,618.268982 
	C830.073547,621.651550 823.836060,624.072693 817.642395,626.352905 
	C808.200745,629.828918 798.974304,634.164307 788.597717,634.785583 
	C781.817627,635.191589 774.716492,634.997009 768.507629,638.229919 
	C761.654419,641.798462 754.096436,641.764221 746.037537,643.613403 
M467.857910,387.670380 
	C468.670044,389.854767 469.385162,392.081146 470.309937,394.216736 
	C476.398376,408.276733 486.221588,417.708832 501.936279,420.159424 
	C516.706543,422.462738 531.481689,421.636719 546.274414,420.778381 
	C558.890564,420.046295 571.184631,418.384155 580.230835,408.633545 
	C581.834229,408.678253 580.705139,410.778595 582.401245,410.528961 
	C584.554993,406.797424 585.904541,402.698853 586.688171,398.446259 
	C590.010193,380.417999 592.070374,362.255768 591.937927,343.897491 
	C591.886536,336.781708 588.415955,332.022552 581.516418,329.705963 
	C578.223083,328.600159 574.772400,327.784302 571.328064,327.336060 
	C547.988098,324.298798 524.519836,323.768433 501.039917,324.548584 
	C491.615387,324.861725 482.017944,324.768158 473.026337,328.609955 
	C465.339752,331.894226 460.905090,337.970856 461.451263,346.085266 
	C462.377747,359.849243 463.303864,373.650085 467.857910,387.670380 
M823.712280,547.724854 
	C821.964417,551.608887 818.088013,553.340149 815.124146,555.923584 
	C806.444580,563.488892 796.543701,569.425964 786.877441,575.582458 
	C777.855835,581.328369 769.324890,588.873230 757.307251,587.544617 
	C756.254089,587.428162 755.057861,588.063843 754.009155,588.531860 
	C741.530701,594.101685 728.749695,598.709778 715.320007,601.483887 
	C705.898499,603.430054 705.759216,603.965515 710.098572,612.724487 
	C710.615173,613.767395 711.170532,614.793579 711.755615,615.799866 
	C717.589355,625.833435 729.055176,634.162964 744.109314,630.857117 
	C764.029297,626.482727 783.159546,619.851624 802.019104,612.379456 
	C824.784668,603.359802 848.225220,595.419006 864.779541,575.576416 
	C867.420227,572.411194 868.233704,569.833008 866.854736,566.202087 
	C861.819153,552.942688 855.467102,540.318970 848.415344,528.039856 
	C847.298584,526.095215 846.059692,524.097534 843.738037,522.729065 
	C838.522461,532.210022 832.464111,540.653076 823.712280,547.724854 
M506.915222,774.334595 
	C495.068542,777.740845 483.783295,782.666809 472.308563,787.082886 
	C469.632446,788.112854 469.023285,790.009521 469.228119,792.606934 
	C471.021667,815.352356 477.998199,836.251099 492.099274,854.344971 
	C499.187988,863.440857 508.356171,870.013550 519.699890,873.154602 
	C522.174927,873.839966 524.602844,874.368469 526.908875,872.836243 
	C533.877014,868.206543 541.408691,864.716370 549.251343,861.907898 
	C552.453918,860.761047 553.909363,858.592834 554.639709,855.420532 
	C556.507568,847.308228 555.861328,839.227966 554.663330,831.138733 
	C552.039246,813.421082 546.070862,797.262512 532.380615,784.921692 
	C525.421631,778.648621 517.450684,774.395935 506.915222,774.334595 
M801.555481,464.482849 
	C798.524963,463.132263 798.208008,465.820160 797.475220,467.433563 
	C793.611206,475.940826 789.352905,484.299957 783.724670,491.708069 
	C770.146118,509.580994 756.059082,527.015259 738.767700,541.631592 
	C735.344421,544.525269 731.193787,545.503357 727.781677,548.240173 
	C722.244934,552.681030 717.920715,558.440063 712.178406,562.496033 
	C705.948608,566.896240 699.079468,570.379944 692.678040,574.553101 
	C689.425842,576.673218 685.209412,577.322937 682.705505,580.685913 
	C683.993713,583.117493 686.069702,584.159302 688.196594,585.104797 
	C696.623718,588.850830 705.455627,588.252869 714.239136,587.229736 
	C727.468811,585.688782 739.583557,580.679871 751.506470,574.985107 
	C772.651123,564.885620 792.462219,552.750122 810.145569,537.315125 
	C815.354492,532.768555 815.272156,532.535461 810.886108,527.493591 
	C802.471497,517.820740 793.959290,508.232849 785.524292,498.577728 
	C784.755127,497.697296 783.146362,497.021088 784.294922,495.127472 
	C789.250061,495.331757 791.779663,500.066010 796.383179,502.014648 
	C794.831848,497.359863 790.319824,495.186523 788.564941,489.676971 
	C796.498535,494.871307 801.283447,501.316742 806.680054,507.104980 
	C812.079651,512.896484 816.356384,519.571106 820.567932,526.389893 
	C827.390686,521.549255 831.125610,515.255249 834.810181,508.929901 
	C836.351318,506.284149 835.632446,503.699707 834.134216,501.376434 
	C825.260376,487.616272 815.530640,474.589996 801.555481,464.482849 
M389.432281,148.072449 
	C381.416687,139.176804 373.098297,137.888290 362.761047,143.930374 
	C353.575104,149.299545 348.284607,157.759399 345.543945,167.569702 
	C338.644562,192.266693 344.235992,215.286194 356.289062,237.123734 
	C360.295746,244.382965 366.282074,249.869598 374.042175,254.432541 
	C373.629303,250.021667 377.610229,250.516327 379.406006,248.600250 
	C387.994049,239.436890 397.999573,231.982620 408.109436,224.638824 
	C411.400177,222.248459 413.251862,219.038467 412.660980,214.754105 
	C411.957550,209.653625 411.631592,204.478622 410.584808,199.451965 
	C406.797058,181.263138 401.580688,163.611832 389.432281,148.072449 
M382.703522,408.146149 
	C376.582275,407.041992 372.064148,403.638397 368.829346,398.425507 
	C363.110718,389.209930 361.111206,379.114960 361.427002,368.369385 
	C361.684845,359.596924 362.413177,351.080170 368.526062,344.037231 
	C374.609253,337.028442 384.347870,337.187958 389.289093,345.027191 
	C392.786499,350.575806 395.760925,356.608368 395.330139,363.623840 
	C394.309937,380.237854 394.470856,397.042419 387.007172,412.616516 
	C387.962677,411.583313 388.650085,410.473358 389.227234,409.308746 
	C390.113068,407.521149 391.055573,405.744904 391.744659,403.879120 
	C398.281403,386.179565 399.800873,367.620667 400.587860,349.024445 
	C401.141479,335.942078 395.320770,328.924683 382.290253,327.512238 
	C358.341583,324.916321 334.415924,326.209930 310.715729,330.361298 
	C301.380280,331.996521 297.633575,336.341248 297.487183,345.794556 
	C297.214050,363.436371 298.482910,381.050903 302.654236,398.236511 
	C304.971405,407.783051 310.021637,416.133392 320.273285,418.902985 
	C336.199188,423.205505 352.494904,423.192596 368.751984,421.033142 
	C374.164795,420.314117 378.761841,417.455017 382.238037,413.108032 
	C383.323151,411.751099 384.928802,410.391632 382.703522,408.146149 
M893.412048,794.184570 
	C892.022095,787.824097 888.862976,782.448364 884.370911,777.789673 
	C868.467957,761.296814 849.126648,753.446960 826.174744,754.023010 
	C811.867493,754.382141 798.958130,758.321472 787.844727,767.420105 
	C784.335815,770.292908 780.610413,773.146118 778.692444,777.583374 
	C780.166260,778.392822 781.220337,777.721008 782.296692,777.369934 
	C783.559448,776.958252 784.781860,776.248108 786.068909,776.111450 
	C807.416931,773.844971 827.247803,777.545837 844.188293,791.618591 
	C849.423828,795.967773 855.048279,800.456482 857.280518,807.070374 
	C859.057800,812.335999 861.611023,817.116699 864.045776,821.989319 
	C867.206055,828.314026 868.996338,834.974243 870.429565,841.855530 
	C871.889221,848.863647 870.786621,855.739014 869.536011,863.594666 
	C889.556702,842.326660 897.915283,817.930359 893.412048,794.184570 
M859.159790,859.445557 
	C862.725891,840.017517 855.699585,823.937256 843.572693,809.341675 
	C825.658569,787.780701 794.464233,780.221191 768.853333,791.471313 
	C767.328979,792.140930 765.167419,792.350708 765.054688,794.857605 
	C767.341736,796.773254 770.218811,797.126343 772.896851,797.839050 
	C782.320190,800.346985 791.399780,803.657288 798.424133,810.696655 
	C806.549805,818.839844 813.394958,827.498413 815.676880,839.626465 
	C817.696472,850.359985 820.882507,860.859985 821.259705,871.891602 
	C821.498779,878.882446 819.717590,885.574707 818.005432,892.281250 
	C834.317017,894.708984 852.621643,880.171021 859.159790,859.445557 
M793.155457,822.339417 
	C775.726807,802.396973 751.022095,799.188049 733.302063,812.577820 
	C734.064880,813.834473 735.436523,814.135315 736.648010,814.588379 
	C749.340149,819.334595 757.921509,828.140442 763.898865,840.268433 
	C767.751465,848.085266 767.186218,856.462891 768.891785,864.518372 
	C770.853699,873.784241 771.962036,883.283691 770.149536,892.782166 
	C769.318054,897.139221 768.143433,901.430725 766.928162,906.584229 
	C780.183105,906.957825 792.489624,905.971130 802.912354,897.252441 
	C803.787476,896.520386 804.513916,895.531311 805.091492,894.535278 
	C809.545166,886.855286 811.777893,878.375061 811.454224,869.683960 
	C810.803040,852.199402 804.549500,836.582825 793.155457,822.339417 
M626.539734,849.462646 
	C623.552368,849.373718 620.709900,849.909790 617.993591,851.072388 
	C618.776123,854.542725 623.213135,855.749207 622.519409,860.216614 
	C619.857300,859.132507 618.823364,856.933533 617.274353,855.338928 
	C615.757874,853.777893 614.259827,851.820129 611.832336,852.388306 
	C602.634644,854.541443 594.736206,859.103577 587.725342,865.306335 
	C590.200073,869.845825 594.638000,873.378906 593.681946,878.175598 
	C592.785400,882.674011 593.481018,886.713928 594.190430,890.917664 
	C595.417175,898.187378 595.821350,905.449158 594.494568,912.746643 
	C593.887207,916.087219 595.193115,917.511475 598.684814,917.874573 
	C611.769897,919.235352 624.854126,920.110840 638.019470,919.508545 
	C646.502991,919.120361 651.768555,915.745239 653.471069,908.642639 
	C657.192688,893.116699 656.500732,877.996582 648.992798,863.489746 
	C644.373047,854.563293 637.637451,849.320190 626.539734,849.462646 
M352.679321,582.843323 
	C354.823853,584.987671 356.477753,587.482483 357.792297,590.195068 
	C365.699646,606.512817 373.723663,622.775818 381.453674,639.177307 
	C400.050629,678.636169 418.421509,718.201782 437.073273,757.634583 
	C442.427704,768.954712 449.199310,771.515564 461.230682,767.306458 
	C483.073700,759.664856 504.857269,751.853333 526.661621,744.101318 
	C544.074158,737.910706 561.495056,731.743042 578.873413,725.457764 
	C581.320862,724.572571 584.367859,724.107666 585.315796,720.341980 
	C582.832581,719.582092 580.891174,720.499207 578.904236,721.149353 
	C563.434753,726.210938 548.465698,732.653381 533.102112,737.959656 
	C518.498474,743.003479 503.738831,747.591431 489.224762,752.930664 
	C479.559387,756.486206 469.768555,759.793396 459.845367,762.527649 
	C451.066925,764.946411 445.590576,762.082031 441.233948,754.073792 
	C440.359619,752.466614 439.598114,750.795715 438.831879,749.132446 
	C428.800568,727.357910 418.861237,705.540588 408.728180,683.813599 
	C399.512054,664.052551 388.842529,645.003601 379.922302,625.088440 
	C374.069885,612.022400 367.979523,599.058228 361.744293,586.170044 
	C356.570648,575.476135 347.599976,569.161804 336.104614,567.558533 
	C323.447357,565.793030 310.615387,565.272034 297.856628,564.244629 
	C282.597595,563.015930 267.335205,561.829407 252.074860,560.616760 
	C229.864471,558.851807 207.653137,557.098389 185.445084,555.304504 
	C170.365631,554.086548 155.297043,552.729736 140.212540,551.580261 
	C128.098923,550.657166 115.973541,549.863831 103.843323,549.195496 
	C99.233055,548.941406 95.107986,550.295654 92.190231,554.247009 
	C93.554985,555.785828 95.119812,555.564270 96.585281,555.676514 
	C106.871475,556.464233 117.162750,557.190430 127.443428,558.044312 
	C161.603378,560.881226 195.748428,563.905029 229.920319,566.588074 
	C263.095612,569.192993 296.298767,571.442078 329.485657,573.901733 
	C337.834686,574.520508 346.239777,575.154053 352.679321,582.843323 
M741.799866,829.666565 
	C724.884033,815.814819 702.510010,820.338501 695.003052,829.502686 
	C695.182922,829.777893 695.310486,830.118958 695.554810,830.313110 
	C695.939697,830.618958 696.389221,830.854614 696.835144,831.070923 
	C708.093079,836.529419 712.652161,846.722290 715.736023,857.917603 
	C716.592102,861.025574 714.349487,864.107361 715.485718,867.290649 
	C719.460632,878.427185 718.361694,889.983643 718.030029,901.429871 
	C717.908081,905.638672 716.737061,909.817017 716.002625,914.263062 
	C725.364136,915.655273 733.990479,914.164307 742.564148,912.070862 
	C753.768311,909.335144 758.995850,901.519043 760.630798,890.690796 
	C760.903931,888.881470 761.185120,887.065613 761.307007,885.242371 
	C762.713013,864.216553 758.242188,845.200684 741.799866,829.666565 
M674.506714,918.923279 
	C681.511536,919.027405 688.456421,918.560120 695.352600,917.196289 
	C702.712463,915.740845 706.847961,911.448120 708.697449,904.154419 
	C710.703979,896.241394 710.722168,888.355835 709.681519,880.421204 
	C707.795898,866.045532 702.633911,853.152466 692.244751,842.622498 
	C680.693420,830.914368 661.457886,833.708435 650.797485,844.629944 
	C656.081665,848.347900 660.005432,853.189331 662.577698,859.094360 
	C663.175110,860.465820 664.319397,862.062012 663.421082,863.325317 
	C660.810913,866.995972 662.275757,870.594543 662.962585,874.321716 
	C664.652527,883.492249 665.874084,892.616455 664.363647,902.061035 
	C663.510986,907.392334 663.128723,912.842957 661.656006,918.211426 
	C665.899719,919.455811 669.734436,918.822266 674.506714,918.923279 
M556.171997,872.616333 
	C539.568176,878.961975 524.653564,887.757324 512.707336,901.392273 
	C517.386353,905.216003 520.758484,908.929077 525.996277,910.308350 
	C542.886414,914.755981 560.075989,916.000244 577.435181,915.730347 
	C581.583008,915.665833 584.389954,913.614807 585.185608,909.368408 
	C586.453979,902.599365 586.743958,895.725220 585.001465,889.082886 
	C580.630615,872.421448 573.422424,868.281738 556.171997,872.616333 
M864.262024,731.245300 
	C861.216370,728.414185 858.100159,725.654419 855.141785,722.734863 
	C850.861572,718.510986 846.078674,717.346863 840.115967,718.725708 
	C834.646606,719.990601 828.966248,720.388306 823.280579,720.393494 
	C811.967346,720.403870 800.689758,720.073914 789.478882,718.399414 
	C786.901123,718.014404 784.160828,717.987244 783.639343,721.372314 
	C781.890930,732.721375 778.976135,743.810364 776.487976,754.996460 
	C776.100098,756.740356 775.354126,759.345215 777.679993,760.367615 
	C779.659729,761.237854 781.064697,759.280090 782.226807,757.976379 
	C789.338318,749.998413 798.488037,745.324951 808.671936,743.479065 
	C827.962219,739.982422 847.060059,741.046631 865.586975,748.252319 
	C870.936035,750.332703 876.073364,752.752502 881.075806,755.852173 
	C877.535217,746.365356 871.478149,738.827942 864.262024,731.245300 
M746.049805,427.882812 
	C744.270325,435.346649 741.595825,442.513947 738.512390,449.509308 
	C737.199829,452.487000 737.853149,454.031860 740.704224,455.350128 
	C752.063904,460.602631 762.746582,467.000244 772.508545,474.858795 
	C774.998779,476.863464 776.741211,476.682037 778.627136,474.003265 
	C781.699463,469.639282 784.139587,464.929260 786.790283,460.326416 
	C789.477966,455.659180 788.419128,451.935730 784.824768,448.273621 
	C775.101196,438.367004 763.195740,431.781494 750.952698,425.697998 
	C749.111267,424.782990 747.015259,424.223419 746.049805,427.882812 
M575.183167,715.660767 
	C578.986511,713.944580 583.378723,713.263611 586.551147,709.561951 
	C585.574585,708.999268 585.035828,708.425354 584.478271,708.406494 
	C572.535950,708.000793 560.557922,708.621704 548.652710,707.068787 
	C547.351013,706.898865 546.117004,707.219788 545.367981,708.742188 
	C543.455383,712.629333 539.791260,713.089478 536.012756,713.136719 
	C533.298889,713.170654 530.584290,713.143311 527.869995,713.143311 
	C533.053284,714.433044 538.042480,714.828308 543.422180,713.323914 
	C547.767273,712.108765 551.462708,709.121704 556.083191,708.981567 
	C558.059570,708.921570 560.366089,708.834045 561.022217,711.329041 
	C561.641602,713.684326 559.650757,714.587952 557.974976,715.230103 
	C549.141907,718.615540 540.503479,722.782715 530.648132,722.275574 
	C529.108276,722.196350 527.235596,721.645081 526.529907,723.986389 
	C525.654114,726.892273 523.156372,727.798218 520.583618,728.766479 
	C505.044403,734.614868 488.757202,738.238586 473.393402,744.567261 
	C467.071991,747.171204 460.995026,746.113586 454.862061,744.347351 
	C452.746857,743.738159 450.760651,742.806519 449.062988,744.999146 
	C451.271179,753.222839 454.578278,755.691040 462.639221,754.684998 
	C465.409851,754.339172 468.137482,753.375671 470.795166,752.439819 
	C505.349426,740.273376 539.887573,728.061035 575.183167,715.660767 
M405.549408,649.980042 
	C408.235321,655.338806 410.908752,660.703857 413.613190,666.053223 
	C414.704498,668.211853 415.254547,671.176636 418.599915,670.712036 
	C421.875061,670.257202 423.079620,667.685547 423.905212,664.799377 
	C428.239929,649.645752 414.282440,631.839355 396.910614,631.747864 
	C399.797638,637.842224 402.512207,643.572449 405.549408,649.980042 
M482.545074,731.651855 
	C489.313568,735.281677 494.165039,730.008667 499.815247,728.016113 
	C479.641052,724.884888 459.545044,722.108398 438.524475,721.241150 
	C440.162018,724.452087 442.259094,724.106018 443.931885,724.342163 
	C448.194397,724.943848 452.529266,725.060547 456.776062,725.740356 
	C465.256012,727.097839 474.042694,727.143677 482.545074,731.651855 
M421.884888,635.589233 
	C422.909760,637.031677 423.673920,638.900085 426.636993,638.033508 
	C425.520111,630.020691 420.052917,625.325928 413.899719,621.460144 
	C406.579895,616.861450 398.749878,613.682800 389.615417,615.883728 
	C391.543671,622.382568 393.522766,623.637939 399.284363,622.428162 
	C401.173126,622.031616 403.008423,622.445740 404.668030,623.073303 
	C411.289246,625.577026 416.874115,629.634155 421.884888,635.589233 
M386.375122,366.626862 
	C388.720764,362.974762 388.239929,358.954041 387.580109,355.049042 
	C387.073914,352.053406 384.885254,350.055450 381.966125,349.391022 
	C378.984985,348.712433 376.871796,350.483856 375.394714,352.864655 
	C373.390320,356.095459 372.742065,359.621643 373.805969,363.343109 
	C375.592560,369.592560 380.641479,371.207336 386.375122,366.626862 
M469.512878,695.782104 
	C473.499115,695.933044 477.455048,697.697571 481.912689,696.211487 
	C478.931061,693.612854 475.568787,693.121277 472.406860,692.433350 
	C457.579224,689.207581 442.346100,689.391968 427.377869,687.290894 
	C426.009521,687.098755 424.505005,687.204102 424.482025,689.082642 
	C424.458984,690.961243 425.819672,691.658630 427.487671,691.668762 
	C441.322113,691.752686 454.874756,694.664734 469.512878,695.782104 
M466.310455,734.242249 
	C459.087189,733.783447 451.953613,731.324097 443.311890,731.980530 
	C448.999634,737.575867 470.810272,739.681091 473.808075,735.990173 
	C471.740845,734.749878 469.442810,734.552795 466.310455,734.242249 
M442.603210,714.395264 
	C448.440369,713.564209 454.154053,714.963562 459.910858,715.433533 
	C468.414337,716.127563 476.893311,717.121826 485.382721,717.988281 
	C468.768402,714.589539 452.089600,711.933350 435.135895,711.741821 
	C436.819519,714.598755 439.620056,713.449524 442.603210,714.395264 
M506.662292,722.213501 
	C508.754547,723.038452 506.832916,724.793396 507.485718,726.100708 
	C511.993439,725.133240 516.322693,723.931213 521.775208,721.181580 
	C510.332306,719.904663 500.393311,718.795532 490.454346,717.686401 
	C495.502167,719.811890 501.057037,719.694763 506.662292,722.213501 
M461.330688,314.788757 
	C458.098328,316.149017 454.675659,317.185974 452.283356,320.047577 
	C460.441040,314.948547 469.666901,313.291748 478.851318,311.435669 
	C473.043732,311.381897 467.535431,312.879913 461.330688,314.788757 
M437.445831,702.394348 
	C435.428192,702.155701 433.410522,701.917053 431.392883,701.678467 
	C438.304047,704.056396 445.415253,704.345459 452.571350,704.228027 
	C447.811127,703.643860 443.050873,703.059692 437.445831,702.394348 
M587.948120,312.922211 
	C594.570923,314.141785 601.193726,315.361328 607.816589,316.580902 
	C600.555298,313.797913 593.059631,312.467926 585.328979,312.596741 
	C585.979492,312.674530 586.630005,312.752289 587.948120,312.922211 
M431.507568,329.009308 
	C428.254120,329.290955 424.893372,328.766724 421.786713,330.270294 
	C428.102539,329.205994 434.488892,330.443329 440.803101,329.400696 
	C438.020294,329.273926 435.237488,329.147156 431.507568,329.009308 
z"/>
<path fill="#000000" opacity="1.000000" stroke="none" 
	d="
M240.310928,848.710327 
	C244.963791,852.384338 249.553360,855.312378 255.422165,855.257202 
	C255.909805,855.252625 256.423492,855.377563 256.883820,855.551392 
	C259.592041,856.574829 263.617126,856.810730 263.307129,860.597107 
	C263.027100,864.017212 259.018066,863.610535 256.727295,863.564270 
	C242.581451,863.278809 228.538345,861.953918 215.341690,856.278381 
	C212.506256,855.058960 209.289246,853.553650 209.643005,849.564880 
	C209.961960,845.968445 212.977737,844.907410 215.796127,843.798645 
	C216.879089,843.372620 217.960312,842.939148 219.058670,842.555908 
	C225.879089,840.176208 232.755508,837.393921 237.431992,846.177612 
	C237.941345,847.134338 239.149460,847.719055 240.310928,848.710327 
z"/>
<path fill="#000000" opacity="1.000000" stroke="none" 
	d="
M509.092957,146.258286 
	C502.753082,148.019028 498.745270,151.453552 498.217926,158.031448 
	C498.084351,159.697891 497.308807,160.955368 495.556763,161.119186 
	C494.148926,161.250839 493.335205,160.052139 493.194641,158.954666 
	C492.179657,151.028305 487.326447,147.101593 479.851532,145.743408 
	C479.394592,145.660370 478.996490,145.253387 478.847809,145.163849 
	C478.941650,142.460022 480.700836,142.098434 482.254761,141.662018 
	C487.695343,140.134094 491.112244,136.709290 492.463104,131.193161 
	C492.736786,130.075607 493.284546,129.021667 493.740967,127.953362 
	C494.189941,126.902374 494.506500,125.583481 495.953735,125.605026 
	C497.647034,125.630226 498.118744,127.003220 498.282990,128.355850 
	C499.219574,136.068069 502.883362,141.001724 511.207733,141.436569 
	C511.909485,141.473221 512.574402,142.215469 513.222351,142.609238 
	C513.124207,145.277924 510.950592,145.345978 509.092957,146.258286 
z"/>
<path fill="#000000" opacity="1.000000" stroke="none" 
	d="
M727.408691,308.152527 
	C724.530273,308.319366 722.044067,308.532867 719.680115,307.579926 
	C718.578430,307.135834 717.609497,306.432648 717.686462,305.058075 
	C717.766541,303.628143 718.885803,303.231903 720.043518,302.938416 
	C724.205261,301.883423 727.623779,303.762054 731.092590,305.426392 
	C730.837463,307.704010 729.201416,307.735260 727.408691,308.152527 
z"/>
<path fill="#000000" opacity="1.000000" stroke="none" 
	d="
M401.802948,472.388367 
	C404.107849,474.488983 405.000732,476.573547 403.230927,479.474854 
	C399.796387,478.331177 398.204102,475.710571 398.385742,472.501801 
	C398.495331,470.565369 400.349884,471.565155 401.802948,472.388367 
z"/>
<path fill="#000000" opacity="1.000000" stroke="none" 
	d="
M423.870239,474.616455 
	C425.976654,472.981415 427.749908,472.706848 428.628296,475.394409 
	C429.073822,476.757568 428.551270,478.247101 427.003571,478.426941 
	C424.591736,478.707275 423.367218,477.415466 423.870239,474.616455 
z"/>
<path fill="#000000" opacity="1.000000" stroke="none" 
	d="
M368.703430,479.703705 
	C368.877686,480.563324 369.972748,481.968903 368.543762,481.581451 
	C366.042145,480.903107 364.526398,478.974884 364.958649,475.812592 
	C367.217041,476.153412 367.499969,478.214478 368.703430,479.703705 
z"/>
<path fill="#000000" opacity="1.000000" stroke="none" 
	d="
M280.729187,694.915649 
	C275.501312,691.075928 270.487152,689.651550 264.130157,691.089233 
	C256.565857,692.799988 250.121658,688.917603 244.685760,683.976257 
	C235.743713,675.847839 229.688171,665.806641 226.421799,654.157227 
	C225.892075,652.268005 225.701019,650.217224 225.736176,648.247986 
	C225.874542,640.493347 231.557419,636.561584 238.150055,640.434692 
	C243.663300,643.673645 248.802673,644.185364 254.765289,642.772888 
	C262.137512,641.026367 268.214661,644.659851 273.542786,648.980835 
	C283.190216,656.804749 290.487030,666.365967 292.714294,679.023560 
	C293.029083,680.812744 293.281311,682.649353 293.244812,684.457581 
	C293.089874,692.136536 288.786591,695.850952 280.729187,694.915649 
z"/>
<path fill="#000000" opacity="1.000000" stroke="none" 
	d="
M555.138428,349.004456 
	C563.456055,364.038147 563.182434,379.032104 555.980286,393.833252 
	C551.942200,402.132080 545.009216,407.221497 535.389343,407.335052 
	C525.810242,407.448181 518.807312,402.629211 514.333923,394.498749 
	C506.947815,381.074554 506.600769,367.071289 512.767273,353.155975 
	C521.581238,333.266449 541.980347,331.211884 555.138428,349.004456 
M530.575378,347.451965 
	C522.163391,349.079895 519.707703,358.536926 522.589294,364.676208 
	C524.839844,369.470886 529.640015,370.991547 534.168335,368.258118 
	C538.477356,365.657013 540.027039,361.534851 539.540405,356.807983 
	C539.037598,351.925110 536.292664,348.602142 530.575378,347.451965 
z"/>
<path fill="#000000" opacity="1.000000" stroke="none" 
	d="
M326.994293,369.161499 
	C321.187347,367.492249 315.805389,365.745361 310.320587,364.425842 
	C307.138275,363.660248 305.866913,361.975525 305.886444,358.854523 
	C305.910339,355.029541 305.507599,351.184174 305.778046,347.382355 
	C306.295532,340.108093 311.316162,336.957031 318.055939,339.258179 
	C324.464081,341.446075 330.918549,343.498383 336.923126,345.469330 
	C339.097778,344.153961 338.642914,342.442322 338.973694,341.062103 
	C340.999542,332.608765 342.163910,331.698547 350.663208,331.817932 
	C353.205383,331.853638 354.462036,332.773529 353.879822,335.451965 
	C348.253632,361.334961 349.258789,387.690918 348.372589,413.906128 
	C348.251984,417.474030 347.013489,418.631256 343.551666,418.139191 
	C334.813660,416.897339 334.711792,416.962250 334.792023,407.915588 
	C334.880432,397.944550 334.010742,387.921936 335.667419,378.020966 
	C336.818695,371.140320 331.745239,370.651672 326.994293,369.161499 
z"/>
</svg>