<svg version="1.1" id="Layer_1" xmlns="http://www.w3.org/2000/svg" xmlns:xlink="http://www.w3.org/1999/xlink" x="0px" y="0px"
	 width="100%" viewBox="0 0 950 1022" enable-background="new 0 0 950 1022" xml:space="preserve">
<path fill="#8455F6" opacity="1.000000" stroke="none" 
	d="
M1.000000,396.000000 
	C1.000000,264.000031 1.000000,132.500031 1.000000,1.000035 
	C317.666595,1.000024 634.333191,1.000024 950.999878,1.000012 
	C950.999878,341.666565 950.999878,682.333130 950.999939,1022.999756 
	C634.333435,1022.999878 317.666931,1022.999878 1.000198,1022.999939 
	C1.000000,814.166687 1.000000,605.333313 1.000000,396.000000 
M191.499969,478.164154 
	C221.490677,478.164001 251.483597,478.376801 281.471100,478.066864 
	C294.902649,477.928070 308.385712,477.324738 321.734924,475.898285 
	C343.622437,473.559448 364.704437,467.880463 385.252686,459.742218 
	C428.566406,442.587585 458.812561,411.494629 481.051483,371.629150 
	C500.161346,337.372833 508.443695,300.113342 509.645142,261.322357 
	C510.203308,243.300720 509.501251,225.049835 507.241852,207.171890 
	C502.925415,173.017868 491.753815,140.978424 473.985962,111.268112 
	C453.055573,76.269516 423.685760,51.495838 386.056976,35.986423 
	C353.850677,22.711996 320.065186,18.484730 285.726929,18.129498 
	C236.413818,17.619354 187.091507,17.996490 137.773117,18.009792 
	C136.018112,18.010265 134.263123,18.169647 132.612396,18.249899 
	C132.612396,171.816147 132.612396,324.815460 132.612396,478.164215 
	C152.205383,478.164215 171.352661,478.164215 191.499969,478.164154 
M291.214813,596.721558 
	C240.730194,728.545715 190.245575,860.369873 139.625641,992.547302 
	C141.385056,992.692993 142.207535,992.820312 143.030075,992.820618 
	C172.358078,992.832275 201.686539,992.756592 231.013519,992.931213 
	C234.600845,992.952515 235.390533,991.081543 236.361649,988.462708 
	C246.996002,959.785889 257.760162,931.156921 268.294342,902.443542 
	C269.652863,898.740723 271.392456,897.426941 275.443054,897.437805 
	C331.099213,897.587097 386.756104,897.594910 442.412140,897.427917 
	C446.729462,897.414978 448.449860,898.975891 449.841034,902.770935 
	C460.253296,931.174805 470.916382,959.486633 481.349701,987.882812 
	C482.652405,991.428284 484.149170,992.998230 488.341949,992.962036 
	C516.668030,992.717834 544.997253,992.838562 573.325439,992.824829 
	C574.905762,992.824036 576.485962,992.678101 578.434875,992.581421 
	C577.827332,990.716919 577.432312,989.292725 576.905762,987.918884 
	C544.672546,903.825317 512.418152,819.739807 480.189209,735.644653 
	C454.897675,669.651245 429.622253,603.651611 404.407074,537.629028 
	C403.258331,534.621155 402.290741,532.687561 398.307465,532.721680 
	C372.147430,532.945679 345.984283,532.895874 319.823059,532.762390 
	C316.582275,532.745911 315.194092,533.917053 314.099640,536.830811 
	C306.675507,556.595398 299.077545,576.294861 291.214813,596.721558 
M703.500977,478.164246 
	C725.498352,478.164154 747.496399,478.081177 769.492554,478.245331 
	C773.170227,478.272766 774.925842,477.348022 776.275696,473.647827 
	C815.906494,365.010376 855.689697,256.428497 895.440796,147.834900 
	C896.047180,146.178162 896.554810,144.485275 897.179138,142.595596 
	C895.973694,142.395798 895.338318,142.198837 894.702820,142.198349 
	C867.373413,142.177399 840.043579,142.240372 812.715027,142.086578 
	C809.183960,142.066696 808.787598,144.245087 807.971191,146.583694 
	C797.998718,175.151108 787.983765,203.703690 778.026489,232.276382 
	C761.924072,278.482452 745.856323,324.700562 730.052917,370.112152 
	C727.989197,363.280640 725.888367,355.240814 723.148071,347.425171 
	C699.638794,280.374268 675.988403,213.372833 652.500488,146.314499 
	C651.356750,143.049103 649.812622,142.069183 646.432861,142.087128 
	C619.937317,142.227905 593.440735,142.162476 566.944458,142.176041 
	C565.846985,142.176605 564.749634,142.329819 563.224731,142.443893 
	C564.042847,144.855316 564.687622,146.890625 565.419617,148.894058 
	C603.564697,253.294525 641.714722,357.693146 679.875916,462.087738 
	C681.755493,467.229584 682.349487,474.349426 686.054504,476.902954 
	C689.967834,479.600128 696.892700,477.927856 703.500977,478.164246 
M737.840820,680.408142 
	C737.077026,681.520569 736.313171,682.632935 735.549316,683.745361 
	C735.162354,683.636414 734.775452,683.527466 734.388489,683.418518 
	C734.388489,674.708130 734.388489,665.997742 734.388489,657.307007 
	C705.618591,657.307007 677.539001,657.307007 649.264893,657.307007 
	C649.264893,769.145325 649.264893,880.676453 649.264893,992.453125 
	C677.709961,992.453125 705.889038,992.453125 734.537659,992.453125 
	C734.537659,989.937805 734.537659,987.799988 734.537659,985.662170 
	C734.537781,926.855164 734.514099,868.048157 734.556702,809.241150 
	C734.565979,796.403687 735.097595,783.625732 739.022522,771.206604 
	C745.242737,751.524780 757.308167,738.080811 778.378784,734.668335 
	C801.933167,730.853577 824.042480,735.429382 844.648865,747.371460 
	C847.426758,748.981445 850.092529,750.785095 852.995178,752.615662 
	C853.508423,751.298279 853.773743,750.864258 853.844299,750.400635 
	C857.525940,726.209045 861.254639,702.023987 864.716675,677.800842 
	C864.949585,676.171448 863.626221,673.655151 862.233704,672.557007 
	C839.798706,654.866638 814.375793,646.653503 785.811035,649.858398 
	C765.309448,652.158569 748.940674,661.632996 737.840820,680.408142 
z"/>
<path fill="#FFFEFF" opacity="1.000000" stroke="none" 
	d="
M190.999969,478.164185 
	C171.352661,478.164215 152.205383,478.164215 132.612396,478.164215 
	C132.612396,324.815460 132.612396,171.816147 132.612396,18.249899 
	C134.263123,18.169647 136.018112,18.010265 137.773117,18.009792 
	C187.091507,17.996490 236.413818,17.619354 285.726929,18.129498 
	C320.065186,18.484730 353.850677,22.711996 386.056976,35.986423 
	C423.685760,51.495838 453.055573,76.269516 473.985962,111.268112 
	C491.753815,140.978424 502.925415,173.017868 507.241852,207.171890 
	C509.501251,225.049835 510.203308,243.300720 509.645142,261.322357 
	C508.443695,300.113342 500.161346,337.372833 481.051483,371.629150 
	C458.812561,411.494629 428.566406,442.587585 385.252686,459.742218 
	C364.704437,467.880463 343.622437,473.559448 321.734924,475.898285 
	C308.385712,477.324738 294.902649,477.928070 281.471100,478.066864 
	C251.483597,478.376801 221.490677,478.164001 190.999969,478.164185 
M221.001465,214.500000 
	C221.001465,274.234406 221.001465,333.968811 221.001465,393.998596 
	C241.422302,393.998596 261.070709,394.241241 280.709595,393.913269 
	C293.801666,393.694641 306.968140,393.393738 319.945190,391.832184 
	C342.220886,389.151672 361.521271,379.143646 377.014801,363.230133 
	C385.022003,355.005859 391.441223,344.890656 397.113586,334.806152 
	C411.097961,309.944366 417.673126,282.793823 417.801178,254.385544 
	C417.868774,239.385971 416.898773,224.219162 414.591980,209.409042 
	C411.026337,186.516647 402.289490,165.331650 389.206116,146.069977 
	C381.341675,134.491776 371.600281,124.853050 359.801849,117.264748 
	C341.532837,105.514816 320.977844,102.623253 299.965698,102.263176 
	C275.479675,101.843567 250.980942,102.159859 226.487717,102.175858 
	C224.739868,102.176994 222.992126,102.334190 221.001465,102.430588 
	C221.001465,139.872681 221.001465,176.686340 221.001465,214.500000 
z"/>
<path fill="#FFFFFF" opacity="1.000000" stroke="none" 
	d="
M291.375305,596.368408 
	C299.077545,576.294861 306.675507,556.595398 314.099640,536.830811 
	C315.194092,533.917053 316.582275,532.745911 319.823059,532.762390 
	C345.984283,532.895874 372.147430,532.945679 398.307465,532.721680 
	C402.290741,532.687561 403.258331,534.621155 404.407074,537.629028 
	C429.622253,603.651611 454.897675,669.651245 480.189209,735.644653 
	C512.418152,819.739807 544.672546,903.825317 576.905762,987.918884 
	C577.432312,989.292725 577.827332,990.716919 578.434875,992.581421 
	C576.485962,992.678101 574.905762,992.824036 573.325439,992.824829 
	C544.997253,992.838562 516.668030,992.717834 488.341949,992.962036 
	C484.149170,992.998230 482.652405,991.428284 481.349701,987.882812 
	C470.916382,959.486633 460.253296,931.174805 449.841034,902.770935 
	C448.449860,898.975891 446.729462,897.414978 442.412140,897.427917 
	C386.756104,897.594910 331.099213,897.587097 275.443054,897.437805 
	C271.392456,897.426941 269.652863,898.740723 268.294342,902.443542 
	C257.760162,931.156921 246.996002,959.785889 236.361649,988.462708 
	C235.390533,991.081543 234.600845,992.952515 231.013519,992.931213 
	C201.686539,992.756592 172.358078,992.832275 143.030075,992.820618 
	C142.207535,992.820312 141.385056,992.692993 139.625641,992.547302 
	C190.245575,860.369873 240.730194,728.545715 291.375305,596.368408 
M360.665100,661.074341 
	C360.183472,659.969116 359.701843,658.863892 359.340088,658.033752 
	C339.387756,710.832275 319.478546,763.516724 299.466705,816.472778 
	C339.451050,816.472778 378.905731,816.472778 418.705017,816.472778 
	C418.079620,814.640869 417.642822,813.228088 417.119385,811.848206 
	C409.919281,792.867065 402.629303,773.919678 395.515778,754.906250 
	C383.911926,723.890869 372.421234,692.833191 360.665100,661.074341 
z"/>
<path fill="#FFFEFF" opacity="1.000000" stroke="none" 
	d="
M703.001465,478.164276 
	C696.892700,477.927856 689.967834,479.600128 686.054504,476.902954 
	C682.349487,474.349426 681.755493,467.229584 679.875916,462.087738 
	C641.714722,357.693146 603.564697,253.294525 565.419617,148.894058 
	C564.687622,146.890625 564.042847,144.855316 563.224731,142.443893 
	C564.749634,142.329819 565.846985,142.176605 566.944458,142.176041 
	C593.440735,142.162476 619.937317,142.227905 646.432861,142.087128 
	C649.812622,142.069183 651.356750,143.049103 652.500488,146.314499 
	C675.988403,213.372833 699.638794,280.374268 723.148071,347.425171 
	C725.888367,355.240814 727.989197,363.280640 730.052917,370.112152 
	C745.856323,324.700562 761.924072,278.482452 778.026489,232.276382 
	C787.983765,203.703690 797.998718,175.151108 807.971191,146.583694 
	C808.787598,144.245087 809.183960,142.066696 812.715027,142.086578 
	C840.043579,142.240372 867.373413,142.177399 894.702820,142.198349 
	C895.338318,142.198837 895.973694,142.395798 897.179138,142.595596 
	C896.554810,144.485275 896.047180,146.178162 895.440796,147.834900 
	C855.689697,256.428497 815.906494,365.010376 776.275696,473.647827 
	C774.925842,477.348022 773.170227,478.272766 769.492554,478.245331 
	C747.496399,478.081177 725.498352,478.164154 703.001465,478.164276 
z"/>
<path fill="#FFFFFF" opacity="1.000000" stroke="none" 
	d="
M738.011597,680.079224 
	C748.940674,661.632996 765.309448,652.158569 785.811035,649.858398 
	C814.375793,646.653503 839.798706,654.866638 862.233704,672.557007 
	C863.626221,673.655151 864.949585,676.171448 864.716675,677.800842 
	C861.254639,702.023987 857.525940,726.209045 853.844299,750.400635 
	C853.773743,750.864258 853.508423,751.298279 852.995178,752.615662 
	C850.092529,750.785095 847.426758,748.981445 844.648865,747.371460 
	C824.042480,735.429382 801.933167,730.853577 778.378784,734.668335 
	C757.308167,738.080811 745.242737,751.524780 739.022522,771.206604 
	C735.097595,783.625732 734.565979,796.403687 734.556702,809.241150 
	C734.514099,868.048157 734.537781,926.855164 734.537659,985.662170 
	C734.537659,987.799988 734.537659,989.937805 734.537659,992.453125 
	C705.889038,992.453125 677.709961,992.453125 649.264893,992.453125 
	C649.264893,880.676453 649.264893,769.145325 649.264893,657.307007 
	C677.539001,657.307007 705.618591,657.307007 734.388489,657.307007 
	C734.388489,665.997742 734.388489,674.708130 734.388489,683.418518 
	C734.775452,683.527466 735.162354,683.636414 735.549316,683.745361 
	C736.313171,682.632935 737.077026,681.520569 738.011597,680.079224 
z"/>
<path fill="#8455F6" opacity="1.000000" stroke="none" 
	d="
M221.001465,214.000000 
	C221.001465,176.686340 221.001465,139.872681 221.001465,102.430588 
	C222.992126,102.334190 224.739868,102.176994 226.487717,102.175858 
	C250.980942,102.159859 275.479675,101.843567 299.965698,102.263176 
	C320.977844,102.623253 341.532837,105.514816 359.801849,117.264748 
	C371.600281,124.853050 381.341675,134.491776 389.206116,146.069977 
	C402.289490,165.331650 411.026337,186.516647 414.591980,209.409042 
	C416.898773,224.219162 417.868774,239.385971 417.801178,254.385544 
	C417.673126,282.793823 411.097961,309.944366 397.113586,334.806152 
	C391.441223,344.890656 385.022003,355.005859 377.014801,363.230133 
	C361.521271,379.143646 342.220886,389.151672 319.945190,391.832184 
	C306.968140,393.393738 293.801666,393.694641 280.709595,393.913269 
	C261.070709,394.241241 241.422302,393.998596 221.001465,393.998596 
	C221.001465,333.968811 221.001465,274.234406 221.001465,214.000000 
z"/>
<path fill="#8556F6" opacity="1.000000" stroke="none" 
	d="
M360.773987,661.433838 
	C372.421234,692.833191 383.911926,723.890869 395.515778,754.906250 
	C402.629303,773.919678 409.919281,792.867065 417.119385,811.848206 
	C417.642822,813.228088 418.079620,814.640869 418.705017,816.472778 
	C378.905731,816.472778 339.451050,816.472778 299.466705,816.472778 
	C319.478546,763.516724 339.387756,710.832275 359.340088,658.033752 
	C359.701843,658.863892 360.183472,659.969116 360.773987,661.433838 
z"/>
</svg>