<svg version="1.1" id="Layer_1" xmlns="http://www.w3.org/2000/svg" xmlns:xlink="http://www.w3.org/1999/xlink" x="0px" y="0px"
	 width="100%" viewBox="0 0 1800 1800" enable-background="new 0 0 1800 1800" xml:space="preserve">
<path fill="#8455F6" opacity="1.000000" stroke="none" 
	d="
M1007.000000,1801.000000 
	C671.333313,1801.000000 336.166656,1801.000000 1.000000,1801.000000 
	C1.000000,1201.000000 1.000000,601.000000 1.000000,1.000000 
	C601.000000,1.000000 1201.000000,1.000000 1801.000000,1.000000 
	C1801.000000,601.000000 1801.000000,1201.000000 1801.000000,1801.000000 
	C1536.500000,1801.000000 1272.000000,1801.000000 1007.000000,1801.000000 
M481.070007,1001.573425 
	C500.872070,978.957336 515.198792,953.199402 524.840027,924.809326 
	C531.832336,904.219360 535.758301,882.924377 536.885437,861.294739 
	C537.746399,844.772583 537.893494,828.087097 536.635010,811.605835 
	C533.623352,772.162415 521.853577,735.330627 501.545135,701.209045 
	C480.941437,666.591370 451.886841,642.110840 414.822937,626.727173 
	C382.117188,613.152466 347.836975,608.343933 312.756317,608.212646 
	C263.760040,608.029358 214.762558,608.165771 165.765594,608.165405 
	C163.993134,608.165405 162.220657,608.165405 160.321686,608.165405 
	C160.321686,761.911011 160.321686,914.965149 160.321686,1068.256104 
	C162.100571,1068.361816 163.573822,1068.525635 165.047089,1068.526001 
	C212.877457,1068.537598 260.708130,1068.637451 308.538086,1068.493774 
	C339.169434,1068.401733 369.350830,1065.140991 398.587921,1055.197144 
	C430.424530,1044.369141 458.536560,1027.945923 481.070007,1001.573425 
M1386.584717,1028.867432 
	C1333.440918,890.132446 1280.286377,751.401550 1227.218750,612.637329 
	C1225.992310,609.429993 1224.612427,608.039551 1220.914185,608.066223 
	C1195.088867,608.252808 1169.261230,608.244446 1143.435669,608.074585 
	C1139.792358,608.050537 1138.230347,609.316589 1136.977905,612.597351 
	C1079.538940,763.058777 1022.015869,913.488098 964.517761,1063.927002 
	C964.022156,1065.223755 963.732239,1066.599243 963.173096,1068.538208 
	C965.633789,1068.538208 967.440247,1068.538086 969.246704,1068.538086 
	C997.072815,1068.538208 1024.899536,1068.449097 1052.724365,1068.638306 
	C1056.724731,1068.665649 1058.557251,1067.427002 1059.921875,1063.697021 
	C1070.485474,1034.820679 1081.312744,1006.040833 1091.885986,977.168091 
	C1093.046997,973.997681 1094.476807,972.910522 1097.905151,972.917725 
	C1154.057007,973.035339 1210.209351,973.038025 1266.361084,972.915894 
	C1269.986206,972.908020 1271.534302,974.085938 1272.759277,977.432373 
	C1283.386597,1006.462158 1294.271240,1035.397705 1304.884521,1064.432617 
	C1306.068604,1067.671875 1307.588135,1068.630859 1310.939087,1068.615112 
	C1339.431030,1068.480835 1367.923950,1068.543945 1396.416504,1068.521362 
	C1397.963745,1068.520142 1399.510864,1068.282227 1401.570068,1068.112305 
	C1396.474854,1054.764771 1391.670044,1042.177856 1386.584717,1028.867432 
M688.143921,759.292114 
	C685.553101,751.925354 682.734680,744.627686 680.468567,737.162415 
	C679.352112,733.484314 677.613220,732.345215 673.796631,732.370728 
	C647.968323,732.543762 622.138367,732.455139 596.308899,732.474243 
	C594.579285,732.475525 592.849731,732.665833 590.805725,732.786804 
	C591.408752,734.722168 591.747314,735.997742 592.199036,737.231873 
	C632.121460,846.291260 672.069397,955.341309 711.900269,1064.434082 
	C713.083923,1067.676025 714.598999,1068.633423 717.947266,1068.615601 
	C744.109253,1068.476196 770.272949,1068.443237 796.434326,1068.630737 
	C800.820801,1068.662109 802.785278,1067.210815 804.299438,1063.062378 
	C843.948181,954.434631 883.746155,845.861267 923.502808,737.272888 
	C923.987915,735.947998 924.271179,734.549316 924.848267,732.463562 
	C921.813599,732.463562 919.354553,732.463562 916.895508,732.463501 
	C892.065918,732.462646 867.235229,732.575745 842.407654,732.352234 
	C838.114136,732.313660 836.407166,733.809509 835.055969,737.711304 
	C813.714233,799.341187 792.180969,860.904663 770.784729,922.515747 
	C766.446533,935.007690 762.490845,947.632446 758.585815,959.505859 
	C735.318542,893.363892 711.867126,826.698608 688.143921,759.292114 
M1569.549438,744.067810 
	C1565.816528,749.203491 1562.083496,754.339111 1557.429932,760.741394 
	C1557.429932,750.468140 1557.429932,741.720093 1557.429932,732.916504 
	C1528.663940,732.916504 1500.476440,732.916504 1472.350586,732.916504 
	C1472.350586,844.932129 1472.350586,956.493164 1472.350586,1068.227783 
	C1500.782227,1068.227783 1528.862671,1068.227783 1557.537964,1068.227783 
	C1557.537964,1065.806885 1557.537964,1063.688599 1557.537964,1061.570190 
	C1557.537964,1003.077393 1557.471802,944.584473 1557.607910,886.092041 
	C1557.628784,877.121582 1557.791870,868.022522 1559.249390,859.207825 
	C1564.178589,829.397095 1577.967529,812.765198 1606.050049,809.455811 
	C1628.272705,806.837036 1649.057495,812.149414 1668.322388,823.447632 
	C1670.849121,824.929443 1673.314453,826.516052 1675.941406,828.136353 
	C1676.391846,827.191528 1676.711914,826.784973 1676.779541,826.339966 
	C1680.489502,801.975708 1684.231079,777.615906 1687.741821,753.222839 
	C1687.960205,751.705383 1686.792603,749.371277 1685.520752,748.351135 
	C1671.377686,737.006836 1655.550415,728.962646 1637.518066,726.264587 
	C1612.708618,722.552551 1589.236084,724.946289 1569.549438,744.067810 
z"/>
<path fill="#FFFFFF" opacity="1.000000" stroke="none" 
	d="
M480.842255,1001.844727 
	C458.536560,1027.945923 430.424530,1044.369141 398.587921,1055.197144 
	C369.350830,1065.140991 339.169434,1068.401733 308.538086,1068.493774 
	C260.708130,1068.637451 212.877457,1068.537598 165.047089,1068.526001 
	C163.573822,1068.525635 162.100571,1068.361816 160.321686,1068.256104 
	C160.321686,914.965149 160.321686,761.911011 160.321686,608.165405 
	C162.220657,608.165405 163.993134,608.165405 165.765594,608.165405 
	C214.762558,608.165771 263.760040,608.029358 312.756317,608.212646 
	C347.836975,608.343933 382.117188,613.152466 414.822937,626.727173 
	C451.886841,642.110840 480.941437,666.591370 501.545135,701.209045 
	C521.853577,735.330627 533.623352,772.162415 536.635010,811.605835 
	C537.893494,828.087097 537.746399,844.772583 536.885437,861.294739 
	C535.758301,882.924377 531.832336,904.219360 524.840027,924.809326 
	C515.198792,953.199402 500.872070,978.957336 480.842255,1001.844727 
M353.036621,694.340576 
	C348.073486,693.848816 343.113617,692.971069 338.146667,692.929138 
	C309.825256,692.689880 281.502167,692.644043 253.179550,692.560852 
	C251.905045,692.557129 250.629715,692.827759 249.260086,692.981201 
	C249.260086,790.137146 249.260086,886.975525 249.260086,983.898010 
	C250.492798,984.008423 251.310562,984.147339 252.127975,984.145386 
	C278.285400,984.081482 304.467072,984.641113 330.589478,983.646423 
	C342.749298,983.183411 355.184601,980.955261 366.812927,977.335876 
	C394.319305,968.774353 412.338470,949.008301 425.663696,924.216553 
	C443.975800,890.146667 448.036957,853.528015 444.736572,815.832947 
	C442.260956,787.557861 433.408051,761.111755 417.570953,737.336914 
	C402.267548,714.363281 381.174103,699.774780 353.036621,694.340576 
z"/>
<path fill="#FFFFFF" opacity="1.000000" stroke="none" 
	d="
M1386.724854,1029.229248 
	C1391.670044,1042.177856 1396.474854,1054.764771 1401.570068,1068.112305 
	C1399.510864,1068.282227 1397.963745,1068.520142 1396.416504,1068.521362 
	C1367.923950,1068.543945 1339.431030,1068.480835 1310.939087,1068.615112 
	C1307.588135,1068.630859 1306.068604,1067.671875 1304.884521,1064.432617 
	C1294.271240,1035.397705 1283.386597,1006.462158 1272.759277,977.432373 
	C1271.534302,974.085938 1269.986206,972.908020 1266.361084,972.915894 
	C1210.209351,973.038025 1154.057007,973.035339 1097.905151,972.917725 
	C1094.476807,972.910522 1093.046997,973.997681 1091.885986,977.168091 
	C1081.312744,1006.040833 1070.485474,1034.820679 1059.921875,1063.697021 
	C1058.557251,1067.427002 1056.724731,1068.665649 1052.724365,1068.638306 
	C1024.899536,1068.449097 997.072815,1068.538208 969.246704,1068.538086 
	C967.440247,1068.538086 965.633789,1068.538208 963.173096,1068.538208 
	C963.732239,1066.599243 964.022156,1065.223755 964.517761,1063.927002 
	C1022.015869,913.488098 1079.538940,763.058777 1136.977905,612.597351 
	C1138.230347,609.316589 1139.792358,608.050537 1143.435669,608.074585 
	C1169.261230,608.244446 1195.088867,608.252808 1220.914185,608.066223 
	C1224.612427,608.039551 1225.992310,609.429993 1227.218750,612.637329 
	C1280.286377,751.401550 1333.440918,890.132446 1386.724854,1029.229248 
M1154.500000,892.167603 
	C1183.298706,892.167603 1212.097290,892.167603 1241.902466,892.167603 
	C1221.703003,838.697205 1201.791260,785.988708 1182.176514,734.066101 
	C1162.657471,785.911865 1142.774414,838.724182 1122.653931,892.167664 
	C1133.540039,892.167664 1143.520020,892.167664 1154.500000,892.167603 
z"/>
<path fill="#FFFFFF" opacity="1.000000" stroke="none" 
	d="
M688.279846,759.662720 
	C711.867126,826.698608 735.318542,893.363892 758.585815,959.505859 
	C762.490845,947.632446 766.446533,935.007690 770.784729,922.515747 
	C792.180969,860.904663 813.714233,799.341187 835.055969,737.711304 
	C836.407166,733.809509 838.114136,732.313660 842.407654,732.352234 
	C867.235229,732.575745 892.065918,732.462646 916.895508,732.463501 
	C919.354553,732.463562 921.813599,732.463562 924.848267,732.463562 
	C924.271179,734.549316 923.987915,735.947998 923.502808,737.272888 
	C883.746155,845.861267 843.948181,954.434631 804.299438,1063.062378 
	C802.785278,1067.210815 800.820801,1068.662109 796.434326,1068.630737 
	C770.272949,1068.443237 744.109253,1068.476196 717.947266,1068.615601 
	C714.598999,1068.633423 713.083923,1067.676025 711.900269,1064.434082 
	C672.069397,955.341309 632.121460,846.291260 592.199036,737.231873 
	C591.747314,735.997742 591.408752,734.722168 590.805725,732.786804 
	C592.849731,732.665833 594.579285,732.475525 596.308899,732.474243 
	C622.138367,732.455139 647.968323,732.543762 673.796631,732.370728 
	C677.613220,732.345215 679.352112,733.484314 680.468567,737.162415 
	C682.734680,744.627686 685.553101,751.925354 688.279846,759.662720 
z"/>
<path fill="#FFFFFF" opacity="1.000000" stroke="none" 
	d="
M1569.788940,743.803223 
	C1589.236084,724.946289 1612.708618,722.552551 1637.518066,726.264587 
	C1655.550415,728.962646 1671.377686,737.006836 1685.520752,748.351135 
	C1686.792603,749.371277 1687.960205,751.705383 1687.741821,753.222839 
	C1684.231079,777.615906 1680.489502,801.975708 1676.779541,826.339966 
	C1676.711914,826.784973 1676.391846,827.191528 1675.941406,828.136353 
	C1673.314453,826.516052 1670.849121,824.929443 1668.322388,823.447632 
	C1649.057495,812.149414 1628.272705,806.837036 1606.050049,809.455811 
	C1577.967529,812.765198 1564.178589,829.397095 1559.249390,859.207825 
	C1557.791870,868.022522 1557.628784,877.121582 1557.607910,886.092041 
	C1557.471802,944.584473 1557.537964,1003.077393 1557.537964,1061.570190 
	C1557.537964,1063.688599 1557.537964,1065.806885 1557.537964,1068.227783 
	C1528.862671,1068.227783 1500.782227,1068.227783 1472.350586,1068.227783 
	C1472.350586,956.493164 1472.350586,844.932129 1472.350586,732.916504 
	C1500.476440,732.916504 1528.663940,732.916504 1557.429932,732.916504 
	C1557.429932,741.720093 1557.429932,750.468140 1557.429932,760.741394 
	C1562.083496,754.339111 1565.816528,749.203491 1569.788940,743.803223 
M1557.627930,761.474365 
	C1557.627930,761.474365 1557.456909,761.357544 1557.456909,761.357544 
	C1557.456909,761.357544 1557.467407,761.581909 1557.627930,761.474365 
z"/>
<path fill="#8455F6" opacity="1.000000" stroke="none" 
	d="
M353.457520,694.435181 
	C381.174103,699.774780 402.267548,714.363281 417.570953,737.336914 
	C433.408051,761.111755 442.260956,787.557861 444.736572,815.832947 
	C448.036957,853.528015 443.975800,890.146667 425.663696,924.216553 
	C412.338470,949.008301 394.319305,968.774353 366.812927,977.335876 
	C355.184601,980.955261 342.749298,983.183411 330.589478,983.646423 
	C304.467072,984.641113 278.285400,984.081482 252.127975,984.145386 
	C251.310562,984.147339 250.492798,984.008423 249.260086,983.898010 
	C249.260086,886.975525 249.260086,790.137146 249.260086,692.981201 
	C250.629715,692.827759 251.905045,692.557129 253.179550,692.560852 
	C281.502167,692.644043 309.825256,692.689880 338.146667,692.929138 
	C343.113617,692.971069 348.073486,693.848816 353.457520,694.435181 
z"/>
<path fill="#8556F6" opacity="1.000000" stroke="none" 
	d="
M1154.000000,892.167603 
	C1143.520020,892.167664 1133.540039,892.167664 1122.653931,892.167664 
	C1142.774414,838.724182 1162.657471,785.911865 1182.176514,734.066101 
	C1201.791260,785.988708 1221.703003,838.697205 1241.902466,892.167603 
	C1212.097290,892.167603 1183.298706,892.167603 1154.000000,892.167603 
z"/>
<path fill="#C2AAFA" opacity="1.000000" stroke="none" 
	d="
M1557.547607,761.528137 
	C1557.467407,761.581909 1557.456909,761.357544 1557.456909,761.357544 
	C1557.456909,761.357544 1557.627930,761.474365 1557.547607,761.528137 
z"/>
</svg>