<?xml version="1.0" encoding="UTF-8"?>
<svg id="Cheetah_Icon" data-name="Cheetah Icon" xmlns="http://www.w3.org/2000/svg" xmlns:xlink="http://www.w3.org/1999/xlink" viewBox="120 100 260 300">
  <defs>
    <style>
      .cls-1 {
        fill: #fff;
      }

      .cls-2 {
        fill: url(#linear-gradient);
      }
    </style>
    <linearGradient id="linear-gradient" x1="-5" y1="250" x2="505" y2="250" gradientUnits="userSpaceOnUse">
      <stop offset="0" stop-color="#ff0bac"/>
      <stop offset="1" stop-color="#54086b"/>
    </linearGradient>
    <clipPath id="rounded-corners">
      <rect x="-5" y="-5" width="510" height="510" rx="50"/>
    </clipPath>
  </defs>
  <rect class="cls-2" x="-5" y="-5" width="510" height="510" clip-path="url(#rounded-corners)"/>
  <g>
    <path class="cls-1" d="M314.86,203.22c1.6,4.93,2.31,9.99,2.57,15.59-.97-2.17-1.77-3.93-2.54-5.69-4.88-11.08-11.07-21.31-19.31-30.25-7.55-8.19-16.27-14.94-25.59-20.95-.4-.26-1.14-.44-.78-1.09,.28-.51,.84-.04,1.23,.07,4.07,1.19,7.95,2.84,11.7,4.85,15.65,8.36,27.16,20.32,32.73,37.48Z"/>
    <path class="cls-1" d="M315.18,132.83c82.37,45.43,97.36,158.31,24.38,220.07-48.86,42.11-123.69,42.55-173.7,1.98-77.96-61.61-67.92-184.48,23.27-227.43,39.74-18.52,88.03-15.81,126.05,5.38h0Zm-.96,1.8c-36.93-19.61-83.38-16.92-118.41,5.33-71.47,43.96-83.7,146.03-19.09,201.68,43.49,37.62,110.62,38.06,155.31,2.06,69.61-55.27,62.54-167.5-17.8-209.07h0Z"/>
    <path class="cls-1" d="M333.46,271.13c.01-.58,.26-.99,.69-1.42,2.75-2.79,5.32-5.74,7.88-8.7,1.4-1.62,1.76-3.22,.96-5.25-1.24-3.16-1.15-3.19-4.5-2.84-6.54,.69-13.09,1.34-19.62,2.1-1.02,.12-1.35-.24-1.71-1.05-4.6-10.21-9.24-20.41-13.85-30.62-1.28-2.83-2.5-5.69-3.78-8.53-.2-.44-.32-.88-.31-1.35,.26-7.27-2-13.85-5.52-20.07-2.39-4.22-5.21-8.13-8.74-11.5-2.86-3.08-6.02-5.81-9.45-8.25-11.9-8.45-25.36-12.23-39.72-13.31-.41-.03-.83,0-1.47,0,1.44,1.85,2.68,3.6,3.76,5.46,2.1,3.66,3.63,7.52,4.62,11.62,.28,1.16-.03,1.83-.95,2.57-7.96,6.44-15.75,13.09-22.82,20.53-5.79,6.09-10.92,12.69-15.24,19.9-.16,.27-.53,.33-.76,.12-.11-.1-.17-.24-.16-.39,.01-.24,.02-.58,.03-.65,1.43-12.53,7.72-21.94,16.21-30.85,3.86-4.06,8.03-7.78,12.2-11.51,.81-.73,1-1.32,.63-2.38-2.67-7.84-6.75-14.72-13.45-19.8-6.25-4.75-14.5-5.26-20.55-1.28-4.19,2.76-6.65,6.82-8.27,11.46-2.17,6.21-2.73,12.65-2.4,19.14,.75,14.97,2.25,29.9,4.46,44.71,2.84,19.01,12.29,34.42,27.44,46.31,9.1,7.14,19.51,11.74,30.26,15.69,5.77,2.12,11.65,3.88,17.49,5.76,.48,.16,.95,.34,1.62,.58l12.83,5.13c6.16,2.52,12.19,5.37,18.67,7.03,2.99,.77,6.02,1.18,9.12,.84,.38,.08,.75,.09,1.11-.08,1.08-.01,2.14-.14,3.17-.46,0,0,.13,0,.13,0,.56-.14,1.11-.27,1.67-.41,5.43-1.55,9.76-4.7,13.14-9.16,1.66-2.19,3.04-4.57,4.39-6.95,1.91-2.7,3.83-5.4,5.74-8.1,.15-.22,.39-.41,.32-.73,.1-.03,.25-.05,.14-.2-.03-.04-.2,.04-.31,.06,0,0,0,0,0,0-2.78,.53-5.77-.94-7.14-3.48-.23-.42-.07-.69,.06-1.03,1.1-2.79,1.9-5.65,1.97-8.67Zm-7.75,16.84c-1.13,7.23-5.25,12.15-11.75,15.24-.85,.33-1.68,.8-2.56,.97-6.14,1.16-11.83-.15-17.12-3.37-5.85-3.55-11.71-7.09-17.51-10.71-16.17-10.09-33.69-16.7-52.31-20.54-3.02-.62-6.04-1.25-9.32-1.92,4.46-1.16,8.71-1.98,12.98-2.7,12.1-2.03,24.12-1.6,36.03,1.3,2.61,.64,5.19,1.42,7.78,2.14l.21-.2c-9.84-12.09-22.41-19.21-38-20.78-7.64-.77-15.18,.02-22.67,1.49-2.3,.45-4.6,.92-7.15,1.43,.84-1.14,1.51-2.06,2.19-2.99,.35-.37,.72-.72,1.05-1.11,4.26-4.94,8.5-9.91,12.79-14.83,7.44-8.54,14.96-17,22.91-25.07,7.34-7.45,15.55-13.61,25.74-16.69,5.22-1.58,10.54-2.35,16-1.83,.05,.29,.1,.58,.15,.87,.02,.18,.05,.35,.07,.53l1.24,11.88c-12.02-4.13-25.25,3.03-31.88,8.77,2.78-.16,5.42-.29,8.05-.48,.95-.07,1.47,.25,1.92,1.13,2.68,5.26,6.9,8.68,12.61,10.27,4.91,1.37,9.92,2.08,14.97,2.55,.96,.09,1.39,.46,1.74,1.25,3.7,8.22,7.38,16.44,11.16,24.62,.55,1.18,.37,1.93-.41,2.82-3.72,4.24-7.43,8.49-11.1,12.77-3.85,4.49-7.79,8.92-11.44,13.59-.25,.32-.89,.56-.38,1.21,1.09,1.38,2.11,2.83,3.21,4.21,7.33,9.3,18.05,11.71,28.62,8.7,4.36-1.24,8.25-3.39,11.65-6.4,.47-.42,.77-.66,.8,.23-.08,.54-.17,1.08-.25,1.63Zm-42.42-77.23c-.94,1.86-2.92,3.07-5,3.14-1.45,.05-2.88-.53-3.96-1.48-.87-.77-1.48-1.75-1.88-2.83-.17-.48-.35-1.02-.31-1.53,.02-.33,.15-.63,.39-.85,.39-.35,.95-.41,1.45-.46l7.52-.78c.62-.04,1.3-.08,1.82,.33,.36,.29,.55,.75,.6,1.21,.12,1.06-.15,2.32-.63,3.26Zm43.23,61.82c-.31,3.75-1.84,6.94-4.66,9.39-5.25,4.55-11.49,5.73-18.17,4.77-5.14-.74-8.95-3.77-12.46-7.75l19.46-22.04c.68-.8,1.01-.8,1.36,.14,.35,.95,.71,1.89,1.14,2.8,.55,1.17,.92,2.3,2.05,3.11,3.55,2.57,6.99,5.28,10.53,7.86,.7,.51,.82,.99,.76,1.73Z"/>
    <path class="cls-1" d="M320.09,179.38c-9.44-8.84-20.55-14.65-32.61-18.75-.07-.33,.19-.43,.36-.56,3.86-3.29,7.77-6.51,12.07-9.23,4.42-2.79,8.93-5.42,14.25-6.07,5.59-.68,9.69,2.38,10.8,7.92,1.2,5.98,.24,11.78-1.35,17.53-.88,3.18-1.94,6.3-3.51,9.16Z"/>
    <path class="cls-1" d="M332.86,226.84c2.79-3.22,5.05-6.57,6.58-10.77,1.49,9.34,.1,18.08-2.06,26.83-.15-.13-.24-.18-.28-.25-3.68-6.46-7.35-12.93-11.04-19.38-.26-.46-.4-.9-.38-1.44,.19-6.32-.59-12.58-1.35-18.83-.32-2.6-1-5.12-1.8-7.6-1.16-3.61-3.07-6.83-5.08-10.06,5.8,1.91,10.09,5.42,12.04,11.36,.22,.68,.35,.89,1.11,.61,2.52-.92,5.01-.6,7.51,.27,1.26,.44,1.48,.93,.63,1.98-.47,.57-.73,1.3-1.16,1.91-1.32,1.89-2.55,3.78-1.84,6.26,.06,.21-.03,.46-.05,.69-.35,4.18-2.48,7.34-5.67,9.89-.34,.27-.88,.4-.57,1.05,1.14,2.45,2.26,4.91,3.43,7.47Z"/>
    <path class="cls-1" d="M227.37,237.64c.12-.18,.18-.31,.28-.41,7.16-7.65,14.34-15.29,21.48-22.96,.55-.59,.83-.41,1.35-.01,6.34,4.91,12.84,9.62,18.79,15,8.6,7.78,12.54,17.62,12.3,29.16-.04,1.76-.27,3.51-.64,5.24-12.8-19.17-30.95-27.02-53.55-26.03Z"/>
    <path class="cls-1" d="M262.46,298.21s-47.55,23.07-49.14,70.6l34,5.81,50.79-5.65-13.88-11.47c-17.41-14.4-25.73-37.05-21.77-59.29h0Z"/>
    <path class="cls-1" d="M150.43,326.16c-1.14-.16-2.29-.14-4-.23,9.23-39.8,21.05-78.17,45.45-112.04,.33,.84,.39,1.1,.52,1.32,2.55,4.12,11.57,37.64,9.8,41.97-20.5,50.35,29.18,94.34,22.98,113.66-4.57,14.24-58.65-30.1-71.63-38.97-1.13-.78-1.67-5.5-3.13-5.7Z"/>
  </g>
</svg>